SplineFontDB: 3.0
FontName: SlabMediaeval
FullName: Slab Mediaeval
FamilyName: Slab Mediaeval
Weight: Regular
Copyright: Copyright (c) 2009 Barry Schwartz
UComments: "2009-9-5: Created." 
Version: 001.000
ItalicAngle: 0
UnderlinePosition: -215
UnderlineWidth: 107
Ascent: 1536
Descent: 512
LayerCount: 4
Layer: 0 0 "Back"  1
Layer: 1 0 "Fore"  0
Layer: 2 0 "backup"  0
Layer: 3 0 "needsredraw"  0
NeedsXUIDChange: 1
XUID: [1021 658 797806517 4575759]
FSType: 0
OS2Version: 0
OS2_WeightWidthSlopeOnly: 0
OS2_UseTypoMetrics: 1
CreationTime: 1252134725
ModificationTime: 1252143155
OS2TypoAscent: 0
OS2TypoAOffset: 1
OS2TypoDescent: 0
OS2TypoDOffset: 1
OS2TypoLinegap: 184
OS2WinAscent: 0
OS2WinAOffset: 1
OS2WinDescent: 0
OS2WinDOffset: 1
HheadAscent: 0
HheadAOffset: 1
HheadDescent: 0
HheadDOffset: 1
DEI: 91125
Encoding: UnicodeBmp
UnicodeInterp: none
NameList: Adobe Glyph List
DisplaySize: -72
AntiAlias: 1
FitToEm: 1
WinInfo: 88 8 7
BeginPrivate: 4
StdVW 5 [195]
StemSnapV 5 [195]
StdHW 4 [90]
StemSnapH 4 [90]
EndPrivate
BeginChars: 65537 74

StartChar: a
Encoding: 97 97 0
Width: 1064
Flags: HW
HStem: -29 154<315.662 497.744> 541 86<479.33 674> 848 145<388.345 623.102>
VStem: 76 194<173.41 413.892> 676 188<196.566 541 620.095 796.798>
LayerCount: 4
Fore
SplineSet
464 128 m 0
 586 128 676 220 676 220 c 1
 676 541 l 1
 675 541 488 500 372 452 c 0
 309 426 270 357 270 290 c 0
 270 208 327 128 464 128 c 0
80 247 m 0
 80 355 127 456 198 498 c 0
 290 553 475 582 676 624 c 1
 676 688 l 2
 676 804 582 847 488 847 c 0
 447 847 405 839 372 825 c 0
 323 804 234 725 234 725 c 1
 170 793 l 1
 389 976 l 1
 389 976 447 988 523 988 c 0
 666 988 871 947 871 710 c 2
 871 239 l 2
 871 158 873 132 919 132 c 0
 944 132 983 163 1008 182 c 1
 1048 112 l 1
 908 18 867 -14 822 -14 c 0
 682 -14 680 130 680 130 c 1
 482 -28 l 1
 482 -28 443 -36 390 -36 c 0
 271 -36 80 2 80 247 c 0
EndSplineSet
EndChar

StartChar: b
Encoding: 98 98 1
Width: 1177
Flags: HW
HStem: -35 129<487.74 757.431> 850 158<645 750.17> 1354 96<31 194.314>
VStem: 201 206<171.686 815.137 885 1353.95> 913 202<317.4 665.729>
LayerCount: 4
Fore
SplineSet
201 164 m 2
 201 500 209 701 209 834 c 0
 209 1287 201 1354 172 1354 c 0
 160 1354 125 1352 31 1350 c 1
 29 1450 l 1
 256 1450 421 1475 421 1475 c 1
 408 885 l 1
 645 1008 l 1
 953 1008 1115 819 1115 562 c 0
 1115 485 1100 402 1071 317 c 0
 1035 214 954 143 872 82 c 0
 774 8 694 -35 575 -35 c 0
 413 -35 356 47 258 47 c 2
 201 47 l 1
 201 164 l 2
611 850 m 0
 526 850 404 799 404 799 c 1
 404 297 l 2
 404 158 522 94 639 94 c 0
 869 94 913 343 913 467 c 0
 913 696 767 850 611 850 c 0
EndSplineSet
EndChar

StartChar: c
Encoding: 99 99 2
Width: 1028
Flags: HW
HStem: -29 135<447.08 724.568> 872 129<419.377 697.59>
VStem: 61 203<296.536 640.554> 748 188<660.609 824.277>
LayerCount: 4
Fore
SplineSet
594 1001 m 0
 699 1001 936 944 936 772 c 0
 936 684 868 616 786 616 c 0
 739 616 727 641 727 657 c 0
 727 673 748 708 748 743 c 0
 748 817 655 872 553 872 c 0
 330 872 264 616 264 483 c 0
 264 243 438 106 616 106 c 0
 735 106 823 164 913 250 c 1
 967 197 l 1
 777 -12 602 -29 516 -29 c 0
 262 -29 61 125 61 426 c 0
 61 594 123 725 264 848 c 0
 405 971 506 1001 594 1001 c 0
EndSplineSet
Layer: 3
SplineSet
516 -29 m 0
 262 -29 61 125 61 426 c 0
 61 594 123 725 264 848 c 0
 405 971 506 1001 594 1001 c 0
 696 1001 833.935745936 954.944143555 893 887 c 0
 919.970659505 855.97449413 936 815 936 772 c 0
 936 684 868 616 786 616 c 0
 739 616 727 641 727 657 c 0
 727 673 748 708 748 743 c 0
 748 817 655 872 553 872 c 0
 330 872 264 616 264 483 c 0
 264 243 438 106 616 106 c 0
 735 106 823 164 913 250 c 1
 967 197 l 1
 777 -12 602 -29 516 -29 c 0
EndSplineSet
EndChar

StartChar: d
Encoding: 100 100 3
Width: 1179
Flags: HW
HStem: -35 144<433.319 633.138> 0 82<983.382 1155> 862 123<440.587 712.294> 1358 98<596 756.774> 1463 20G<966 980>
VStem: 61 183<298.381 652.991> 780 195<147.11 801.994 954 1069.86>
LayerCount: 4
Fore
SplineSet
778 1012 m 2
 778 1345 762 1358 711 1358 c 2
 596 1358 l 1
 596 1456 l 1
 823 1460 957 1483 975 1483 c 0
 985 1483 991 1476 991 1466 c 0
 991 1435 975 1221 975 541 c 2
 975 438 l 2
 975 436 975 136 983 109 c 1xbe
 991 86 1009 82 1032 82 c 2
 1155 82 l 1
 1155 0 l 1
 782 0 l 1x7e
 782 78 l 1
 776 80 l 1
 612 -18 l 1
 571 -28 530 -35 485 -35 c 0xbe
 307 -35 61 74 61 424 c 0
 61 666 183 784 236 827 c 0
 306 884 495 985 623 985 c 2
 625 985 l 2
 676 985 727 973 772 950 c 1
 778 954 l 1
 778 1012 l 2
244 479 m 0
 244 196 488 109 592 109 c 0
 629 109 686 117 780 168 c 1
 780 768 l 1
 737 809 653 862 553 862 c 2
 551 862 l 2
 365 862 244 688 244 479 c 0
EndSplineSet
Layer: 3
SplineSet
485 -35 m 0xbe
 307 -35 61 74 61 424 c 0
 61 666 183.054599395 783.932877177 236 827 c 0
 339.106327331 910.869284438 506 967 539 975 c 0
 566 981 594 985 623 985 c 2
 625 985 l 2
 676 985 727 973 772 950 c 1
 778 954 l 1
 778 1012 l 2
 778 1073 776 1260 762 1319 c 1
 754 1358 727 1358 711 1358 c 2
 596 1358 l 1
 596 1456 l 1
 823 1460 957 1483 975 1483 c 0
 985 1483 991 1476 991 1466 c 0
 991 1435 975 1221 975 541 c 2
 975 438 l 2
 975 436 975 136 983 109 c 1xbe
 991 86 1009 82 1032 82 c 2
 1155 82 l 1
 1155 0 l 1
 782 0 l 1x7e
 782 78 l 1
 776 80 l 1
 612 -18 l 1
 571 -28 530 -35 485 -35 c 0xbe
551 862 m 2
 365 862 244 688 244 479 c 0
 244 356 287 254 389 182 c 1
 428 153 506 109 592 109 c 0
 629 109 686 117 780 168 c 1
 780 768 l 1
 737 809 653 862 553 862 c 2
 551 862 l 2
EndSplineSet
EndChar

StartChar: e
Encoding: 101 101 4
Width: 1044
Flags: HW
HStem: -35 168<414.903 684.662> 520 96<256 772> 893 108<387.393 638.827>
VStem: 61 187<309.438 520 616 650.088>
LayerCount: 4
Fore
SplineSet
514 893 m 2
 512 893 l 2
 369 893 281 763 256 616 c 1
 772 621 l 1
 741 801 620 893 514 893 c 2
555 1001 m 0
 694 1001 977 907 977 530 c 2
 977 520 l 1
 250 520 l 1
 250 510 248 499 248 487 c 0
 248 305 377 133 567 133 c 0
 645 133 768 162 954 332 c 1
 1004 274 l 1
 930 180 737 -35 489 -35 c 0
 256 -35 61 151 61 430 c 0
 61 745 315 1001 555 1001 c 0
EndSplineSet
Layer: 3
SplineSet
514 893 m 2
 512 893 l 2
 369 893 281 763 256 616 c 1
 772 621 l 1
 741 801 620 893 514 893 c 2
61 430 m 0
 61 745 315 1001 555 1001 c 0
 670 1001 800.769063126 945.818025525 881 844 c 0
 956.78186933 747.828116604 977 622 977 530 c 2
 977 520 l 1
 250 520 l 1
 250 510 248 499 248 487 c 0
 248 305 377 133 567 133 c 0
 645 133 768 162 954 332 c 1
 1004 274 l 1
 930 180 737 -35 489 -35 c 0
 256 -35 61 151 61 430 c 0
EndSplineSet
EndChar

StartChar: f
Encoding: 102 102 5
Width: 653
Flags: HW
HStem: 0 82<25 197.077 408.566 580> 852 104<41 205 399 635> 1255 222<625.868 776.361> 1362 115<466.362 599.896>
VStem: 205 194<82.5128 852 956 1239.34>
LayerCount: 4
Fore
SplineSet
150 82 m 2
 202 82 205 95 205 414 c 2
 205 852 l 1
 41 852 l 1
 41 956 l 1
 205 956 l 1
 205 991 l 2
 205 1214 268 1311 397 1397 c 0
 458 1438 537 1477 635 1477 c 2
 639 1477 l 2
 776 1477 805 1413 805 1370 c 0
 805 1300 737 1255 676 1255 c 0xe8
 608 1255 645 1298 600 1343 c 0
 598 1345 582 1362 551 1362 c 0
 496 1362 442 1304 422 1253 c 0
 408 1216 399 1153 399 1055 c 2
 399 956 l 1
 635 956 l 1
 635 852 l 1
 399 852 l 1
 399 414 l 2xd8
 399 103 400 82 455 82 c 2
 580 82 l 1
 580 0 l 1
 25 0 l 1
 25 82 l 1
 150 82 l 2
EndSplineSet
Layer: 3
SplineSet
399 414 m 2xd8
 399 103 400 82 455 82 c 2
 580 82 l 1
 580 0 l 1
 25 0 l 1
 25 82 l 1
 150 82 l 2
 189 82 197 100 199 143 c 0
 203 233 205 324 205 414 c 2
 205 852 l 1
 41 852 l 1
 41 956 l 1
 205 956 l 1
 205 991 l 2
 205 1214 268.162722229 1310.75691166 397 1397 c 0
 458.077140783 1437.88476052 537 1477 635 1477 c 2
 639 1477 l 2
 776 1477 805 1413 805 1370 c 0
 805 1300 737 1255 676 1255 c 0xe8
 608 1255 645 1298 600 1343 c 0
 598 1345 582 1362 551 1362 c 0
 496 1362 442 1304 422 1253 c 0
 408 1216 399 1153 399 1055 c 2
 399 956 l 1
 635 956 l 1
 635 852 l 1
 399 852 l 1
 399 414 l 2xd8
EndSplineSet
EndChar

StartChar: g
Encoding: 103 103 6
Width: 976
Flags: HW
HStem: -434 92<273.506 662.958> -10 164<272.871 710.587> 311 88<343.169 572.767> 858 94<782 965> 895 121<334.219 558.564>
VStem: 23 180<-280.239 -119.779> 80 164<114 254.78 506.739 789.854> 655 181<518.984 792.157> 760 168<-249.049 -58.9823>
LayerCount: 4
Fore
SplineSet
655 637 m 0xeb
 655 782 555 895 440 895 c 2
 438 895 l 2
 350 895 244 818 244 662 c 0
 244 521 338 399 463 399 c 0
 580 399 655 510 655 637 c 0xeb
928 -98 m 0
 928 -232 832 -434 418 -434 c 0
 107 -434 23 -309 23 -225 c 0xf480
 23 -127 135 -51 217 2 c 1
 217 6 l 1
 154 16 80 72 80 156 c 0
 80 265 205 310 264 330 c 1
 264 334 l 1
 151 369 72 477 72 616 c 0
 72 727 123 807 203 879 c 1
 269 936 371 1016 512 1016 c 2
 514 1016 l 2xec
 577 1016 643 999 696 952 c 1
 965 952 l 1
 965 858 l 1
 782 858 l 1
 782 852 l 1
 813 807 836 752 836 682 c 0
 836 487 655 311 436 311 c 0
 420 311 405 313 393 313 c 0
 335 313 244 248 244 205 c 0xf3
 244 150 325 156 348 154 c 1
 623 154 l 2
 736 154 815 136 874 66 c 0
 911 21 928 -39 928 -98 c 0
203 -184 m 0
 203 -247 258 -342 451 -342 c 0
 699 -342 760 -228 760 -154 c 0xe480
 760 -101 725 -43 647 -20 c 0
 614 -10 578 -10 543 -10 c 2
 344 -10 l 1
 264 -43 203 -114 203 -184 c 0
EndSplineSet
Layer: 3
SplineSet
655 637 m 0xeb
 655 782 555 895 440 895 c 2
 438 895 l 2
 350 895 244 818 244 662 c 0
 244 521 338 399 463 399 c 0
 580 399 655 510 655 637 c 0xeb
72 616 m 0
 72 727 123 807 203 879 c 1
 269 936 371 1016 512 1016 c 2
 514 1016 l 2xec
 577 1016 643 999 696 952 c 1
 965 952 l 1
 965 858 l 1
 782 858 l 1
 782 852 l 1
 813 807 836 752 836 682 c 0
 836 487 655 311 436 311 c 0
 420 311 405 313 393 313 c 0
 366 313 348 305 330 295 c 0
 289 270 244 242 244 205 c 0xf3
 244 150 325 156 348 154 c 1
 623 154 l 2
 736 154 815 136 874 66 c 0
 911 21 928 -39 928 -98 c 0
 928 -266 792 -369 649 -408 c 0
 573 -428 498 -434 418 -434 c 0
 107 -434 23 -309 23 -225 c 0xf480
 23 -127 135 -51 217 2 c 1
 217 6 l 1
 154 16 80 72 80 156 c 0
 80 265 205 310 264 330 c 1
 264 334 l 1
 151 369 72 477 72 616 c 0
203 -184 m 0
 203 -247 258 -342 451 -342 c 0
 699 -342 760 -228 760 -154 c 0xe480
 760 -101 724.912781752 -43.2917520461 647 -20 c 0
 613.963017265 -10.1237102192 578 -10 543 -10 c 2
 344 -10 l 1
 264 -43 203 -114 203 -184 c 0
EndSplineSet
EndChar

StartChar: h
Encoding: 104 104 7
Width: 1302
Flags: HW
HStem: 0 82<27 198.335 411.375 582 723 894.335 1107.04 1278> 842 155<612.733 844.779> 1358 98<25 185.6> 1463 20G<394 408>
VStem: 207 194<82.4804 777.804 866 1316.97> 903 195<82.639 782.666>
LayerCount: 4
Fore
SplineSet
152 82 m 2
 201 82 207 98 207 360 c 2
 207 971 l 2
 207 1086 200 1278 190 1319 c 1
 184 1348 170 1358 139 1358 c 2
 25 1358 l 1
 25 1456 l 1
 252 1460 385 1483 403 1483 c 0
 413 1483 420 1476 420 1468 c 0
 420 1452 408 1260 408 1016 c 2
 408 866 l 1
 412 862 l 1
 645 989 l 1
 663 993 702 997 741 997 c 0
 1010 997 1079 865 1094 750 c 1
 1098 608 l 1
 1098 360 l 2
 1098 112 1100 82 1153 82 c 2
 1278 82 l 1
 1278 0 l 1
 723 0 l 1
 723 82 l 1
 848 82 l 2
 897 82 903 98 903 360 c 2
 903 616 l 2
 903 692 901 842 700 842 c 0
 581 842 483 805 401 752 c 1
 401 360 l 2
 401 92 410 82 457 82 c 2
 582 82 l 1
 582 0 l 1
 27 0 l 1
 27 82 l 1
 152 82 l 2
EndSplineSet
Layer: 3
SplineSet
1098 360 m 2
 1098 112 1100 82 1153 82 c 2
 1278 82 l 1
 1278 0 l 1
 723 0 l 1
 723 82 l 1
 848 82 l 2
 887 82 893 100 897 143 c 1
 901 215 903 288 903 360 c 2
 903 616 l 2
 903 692 901 842 700 842 c 0
 581 842 483 805 401 752 c 1
 401 360 l 2
 401 92 410 82 457 82 c 2
 582 82 l 1
 582 0 l 1
 27 0 l 1
 27 82 l 1
 152 82 l 2
 191 82 197 100 201 143 c 1
 205 215 207 288 207 360 c 2
 207 971 l 2
 207 1086 200 1278 190 1319 c 1
 184 1348 170 1358 139 1358 c 2
 25 1358 l 1
 25 1456 l 1
 252 1460 385 1483 403 1483 c 0
 413 1483 420 1476 420 1468 c 0
 420 1452 408 1260 408 1016 c 2
 408 866 l 1
 412 862 l 1
 645 989 l 1
 663 993 702 997 741 997 c 0
 856 997 984 969 1047 881 c 0
 1074 842 1088 797 1094 750 c 1
 1098 608 l 1
 1098 360 l 2
EndSplineSet
EndChar

StartChar: i
Encoding: 105 105 8
Width: 621
Flags: HWO
HStem: 0 82<27 194.985 406.587 565> 870 82<29 190.75> 959 20G<387 395> 1180 223<224.423 401.007>
VStem: 201 223<1202.5 1380.27> 203 194<82.6552 866.949>
LayerCount: 4
Fore
SplineSet
201 90 m 1
 201 90 207 366 207 578 c 0
 207 626 203 868 203 868 c 1
 185 880 76 880 31 880 c 1
 28 962 l 1
 183 962 338 981 416 998 c 1
 412 898 402 726 402 510 c 2
 402 381 l 2
 402 267 407 90 407 90 c 1
 573 90 l 1
 573 0 l 1
 42 0 l 1
 42 90 l 1
 201 90 l 1
207 1299 m 0
 207 1360 257 1413 320 1413 c 0
 381 1413 436 1367 436 1299 c 0
 436 1236 388 1184 320 1184 c 0
 252 1184 207 1236 207 1299 c 0
EndSplineSet
EndChar

StartChar: j
Encoding: 106 106 9
Width: 557
Flags: HW
HStem: 870 82<27 188.75> 959 20G<385 393> 1180 223<222.423 399.007>
VStem: 199 223<1202.5 1380.27> 201 200<-170 866.949>
LayerCount: 4
Fore
SplineSet
61 952 m 2xe8
 245 952 381 979 389 979 c 0
 397 979 401 975 401 965 c 0
 401 930 395 895 395 614 c 2
 395 412 l 1
 395 412 401 98 401 96 c 0
 396 -294 355 -310 84 -420 c 1
 35 -326 l 1
 82 -301 172 -268 195 -170 c 1
 201 -74 l 1
 201 600 l 2
 201 868 199 870 113 870 c 2
 27 870 l 1
 27 952 l 1
 61 952 l 2xe8
199 1292 m 0xf0
 199 1351 248 1403 309 1403 c 0
 368 1403 422 1358 422 1292 c 0
 422 1231 375 1180 309 1180 c 0
 243 1180 199 1231 199 1292 c 0xf0
EndSplineSet
Layer: 3
SplineSet
61 952 m 2xe8
 245 952 381 979 389 979 c 0
 397 979 401 975 401 965 c 0
 401 930 395 895 395 614 c 2
 395 412 l 1
 395 412 401 98 401 96 c 0
 399 -70 389 -174 362 -231 c 0
 315 -333 225 -363 84 -420 c 1
 35 -326 l 1
 82 -301 172 -268 195 -170 c 1
 201 -74 l 1
 201 600 l 2
 201 868 199 870 113 870 c 2
 27 870 l 1
 27 952 l 1
 61 952 l 2xe8
199 1292 m 0xf0
 199 1351 248 1403 309 1403 c 0
 368 1403 422 1358 422 1292 c 0
 422 1231 375 1180 309 1180 c 0
 243 1180 199 1231 199 1292 c 0xf0
EndSplineSet
EndChar

StartChar: k
Encoding: 107 107 10
Width: 1206
Flags: HW
HStem: 0 82<27 198.335 404.587 575 668 792.986 1020.82 1182> 870 82<659 775.988 948.242 1133> 1358 98<25 185.6> 1463 20G<394 408>
VStem: 207 194<82.5926 446 563 1222.93>
LayerCount: 4
Fore
SplineSet
662 629 m 1
 1044 82 1018 82 1130 82 c 2
 1182 82 l 1
 1182 0 l 1
 668 0 l 1
 668 82 l 1
 758 82 l 2
 774 82 793 84 793 102 c 0
 793 127 774 147 508 530 c 1
 395 446 l 1
 395 369 l 2
 395 109 398 82 451 82 c 2
 575 82 l 1
 575 0 l 1
 27 0 l 1
 27 82 l 1
 152 82 l 2
 201 82 207 98 207 360 c 2
 207 971 l 2
 207 1086 200 1278 190 1319 c 1
 184 1348 170 1358 139 1358 c 2
 25 1358 l 1
 25 1456 l 1
 252 1460 385 1483 403 1483 c 0
 413 1483 420 1476 420 1468 c 0
 420 1441 401 1261 401 696 c 2
 401 563 l 1
 406 561 l 1
 750 805 776 817 776 846 c 0
 776 866 760 870 737 870 c 2
 659 870 l 1
 659 952 l 1
 1133 952 l 1
 1133 870 l 1
 1069 870 l 2
 987 870 951 838 662 629 c 1
EndSplineSet
Layer: 3
SplineSet
395 369 m 2
 395 109 398 82 451 82 c 2
 575 82 l 1
 575 0 l 1
 27 0 l 1
 27 82 l 1
 152 82 l 2
 191 82 197 100 201 143 c 1
 205 215 207 288 207 360 c 2
 207 971 l 2
 207 1086 200 1278 190 1319 c 1
 184 1348 170 1358 139 1358 c 2
 25 1358 l 1
 25 1456 l 1
 252 1460 385 1483 403 1483 c 0
 413 1483 420 1476 420 1468 c 0
 420 1441 401 1261 401 696 c 2
 401 563 l 1
 406 561 l 1
 750 805 776 817 776 846 c 0
 776 866 760 870 737 870 c 2
 659 870 l 1
 659 952 l 1
 1133 952 l 1
 1133 870 l 1
 1069 870 l 2
 987 870 951 838 662 629 c 1
 992 156 989 154 1024 119 c 1
 1057 88 1083 82 1130 82 c 2
 1182 82 l 1
 1182 0 l 1
 668 0 l 1
 668 82 l 1
 758 82 l 2
 774 82 793 84 793 102 c 0
 793 127 774 147 508 530 c 1
 395 446 l 1
 395 369 l 2
EndSplineSet
EndChar

StartChar: l
Encoding: 108 108 11
Width: 606
Flags: HW
HStem: 0 82<27 198.335 411.375 582> 1358 98<25 185.6> 1463 20G<394 408>
VStem: 207 194<82.4804 1302.88>
LayerCount: 4
Fore
SplineSet
152 82 m 2
 201 82 207 98 207 360 c 2
 207 971 l 2
 207 1086 200 1278 190 1319 c 1
 184 1348 170 1358 139 1358 c 2
 25 1358 l 1
 25 1456 l 1
 252 1460 385 1483 403 1483 c 0
 413 1483 420 1478 420 1468 c 0
 420 1445 401 1282 401 774 c 2
 401 360 l 2
 401 92 410 82 457 82 c 2
 582 82 l 1
 582 0 l 1
 27 0 l 1
 27 82 l 1
 152 82 l 2
EndSplineSet
Layer: 3
SplineSet
420 1468 m 0
 420 1445 401 1282 401 774 c 2
 401 360 l 2
 401 92 410 82 457 82 c 2
 582 82 l 1
 582 0 l 1
 27 0 l 1
 27 82 l 1
 152 82 l 2
 191 82 197 100 201 143 c 1
 205 215 207 288 207 360 c 2
 207 971 l 2
 207 1086 200 1278 190 1319 c 1
 184 1348 170 1358 139 1358 c 2
 25 1358 l 1
 25 1456 l 1
 252 1460 385 1483 403 1483 c 0
 413 1483 420 1478 420 1468 c 0
EndSplineSet
EndChar

StartChar: m
Encoding: 109 109 12
Width: 1986
Flags: HW
HStem: 0 82<27 199.077 410.566 573 717 889.077 1101 1272 1415 1579.08 1791 1962> 838 145<563.51 827.546 1287.61 1518.94> 870 82<25 184.867>
VStem: 207 194<82.5137 769.963> 897 195<82.6469 771.893> 1587 195<82.6469 769.786>
LayerCount: 4
Fore
SplineSet
152 82 m 2
 204 82 207 95 207 412 c 2
 207 632 l 2
 207 834 205 870 94 870 c 2
 25 870 l 1
 25 952 l 1
 98 952 l 1xbc
 260 954 387 979 393 979 c 0
 397 979 406 977 406 967 c 0
 406 955 403 942 399 850 c 1
 403 848 l 1
 627 975 l 1
 645 981 664 983 684 983 c 0
 868 983 995 938 1065 829 c 1
 1317 975 l 1
 1337 981 1359 983 1384 983 c 0
 1566 983 1751 926 1778 754 c 0
 1782 729 1782 703 1782 678 c 2
 1782 412 l 2
 1782 111 1782 82 1837 82 c 2
 1962 82 l 1
 1962 0 l 1
 1415 0 l 1
 1415 82 l 1
 1532 82 l 2
 1584 82 1587 95 1587 414 c 2
 1587 641 l 2
 1587 799 1472 838 1360 838 c 0
 1258 838 1160 792 1092 743 c 1
 1092 412 l 2
 1092 111 1092 82 1147 82 c 2
 1272 82 l 1
 1272 0 l 1
 717 0 l 1
 717 82 l 1
 842 82 l 2
 894 82 897 95 897 414 c 0
 897 492 897 570 897 648 c 0
 897 689 889 838 672 838 c 0
 568 838 469 792 401 743 c 1
 401 416 l 2
 401 103 402 82 457 82 c 2
 573 82 l 1
 573 0 l 1
 27 0 l 1
 27 82 l 1
 152 82 l 2
EndSplineSet
Layer: 3
SplineSet
207 610 m 2xdc
 207.002259727 631.674239641 l 0
 207.002259727 833.577784055 205.134453782 870 94 870 c 2
 25 870 l 1
 25 952 l 1
 98 952 l 1xbc
 260 954 387 979 393 979 c 0
 397 979 406 977 406 967 c 0
 406 955 403 942 399 850 c 1
 403 848 l 1
 627 975 l 1
 645 981 664 983 684 983 c 0
 868 983 995 938 1065 829 c 1
 1317 975 l 1
 1337 981 1359 983 1384 983 c 0
 1566 983 1750.74643005 925.959812201 1778 754 c 0
 1781.96312667 728.994156019 1782 703 1782 678 c 2
 1782 412 l 2
 1782 111 1782 82 1837 82 c 2
 1962 82 l 1
 1962 0 l 1
 1415 0 l 1
 1415 82 l 1
 1532 82 l 2
 1571 82 1579 100 1581 143 c 0
 1585 233 1587 324 1587 414 c 2
 1587 641 l 2
 1587 690 1582.97472545 753.96073249 1513 799 c 0
 1467.98374033 827.974738358 1415 838 1360 838 c 0
 1258 838 1160 792 1092 743 c 1
 1092 412 l 2
 1092 111 1092 82 1147 82 c 2
 1272 82 l 1
 1272 0 l 1
 717 0 l 1
 717 82 l 1
 842 82 l 2
 881 82 889 100 891 143 c 0
 895 233 897 324 897 414 c 2
 897 641 l 2
 897 690 892.974725447 753.96073249 823 799 c 0
 777.983740332 827.974738358 725 838 672 838 c 0
 568 838 469 792 401 743 c 1
 401 416 l 2
 401 103 402 82 457 82 c 2
 573 82 l 1
 573 0 l 1
 27 0 l 1
 27 82 l 1
 152 82 l 2
 191 82 199 100 201 143 c 0
 205 233 207 322 207 412 c 2
 207 610 l 2xdc
EndSplineSet
EndChar

StartChar: n
Encoding: 110 110 13
Width: 1296
Flags: HW
HStem: 0 82<27 199.077 410.566 573 725 889.077 1101 1272> 838 145<563.247 828.862> 870 82<25 184.867>
VStem: 207 194<82.5137 771.117> 897 195<82.6469 769.786>
LayerCount: 4
Fore
SplineSet
152 82 m 2
 204 82 207 95 207 412 c 2
 207 632 l 2
 207 834 205 870 94 870 c 2
 25 870 l 1
 25 952 l 1
 98 952 l 1xb8
 260 954 387 979 393 979 c 0
 397 979 406 977 406 967 c 0
 406 955 403 942 399 850 c 1
 403 848 l 1
 627 975 l 1
 647 981 667 983 690 983 c 0
 880 983 1060 926 1087 754 c 0
 1091 729 1092 703 1092 678 c 2
 1092 412 l 2
 1092 111 1092 82 1147 82 c 2
 1272 82 l 1
 1272 0 l 1
 725 0 l 1
 725 82 l 1
 842 82 l 2
 894 82 897 95 897 414 c 2
 897 641 l 2
 897 799 782 838 670 838 c 0
 568 838 469 792 401 743 c 1
 401 416 l 2
 401 103 402 82 457 82 c 2
 573 82 l 1
 573 0 l 1
 27 0 l 1
 27 82 l 1
 152 82 l 2
EndSplineSet
Layer: 3
SplineSet
207 610 m 2xd8
 207.002259727 631.674239641 l 0
 207.002259727 833.577784055 205.134453782 870 94 870 c 2
 25 870 l 1
 25 952 l 1
 98 952 l 1xb8
 260 954 387 979 393 979 c 0
 397 979 406 977 406 967 c 0
 406 955 403 942 399 850 c 1
 403 848 l 1
 627 975 l 1
 647 981 667 983 690 983 c 0
 880 983 1059.74643005 925.959812201 1087 754 c 0
 1090.96312667 728.994156019 1092 703 1092 678 c 2
 1092 412 l 2
 1092 111 1092 82 1147 82 c 2
 1272 82 l 1
 1272 0 l 1
 725 0 l 1
 725 82 l 1
 842 82 l 2
 881 82 889 100 891 143 c 0
 895 233 897 324 897 414 c 2
 897 641 l 2
 897 690 892.974725447 753.96073249 823 799 c 0
 777.983740332 827.974738358 725 838 670 838 c 0
 568 838 469 792 401 743 c 1
 401 416 l 2
 401 103 402 82 457 82 c 2
 573 82 l 1
 573 0 l 1
 27 0 l 1
 27 82 l 1
 152 82 l 2
 191 82 199 100 201 143 c 0
 205 233 207 322 207 412 c 2
 207 610 l 2xd8
EndSplineSet
EndChar

StartChar: o
Encoding: 111 111 14
Width: 1206
Flags: HW
HStem: -35 111<488.158 791.855> 881 116<422.592 733.808>
VStem: 61 197<315.459 660.955> 946 199<301.497 645.133>
LayerCount: 4
Fore
SplineSet
1145 504 m 0
 1145 236 943 100 877 57 c 0
 791 2 709 -35 594 -35 c 0
 311 -35 61 164 61 459 c 0
 61 760 322 997 627 997 c 2
 629 997 l 1
 926 995 1145 772 1145 504 c 0
657 76 m 0
 823 76 946 207 946 426 c 0
 946 674 796 881 573 881 c 0
 362 881 258 701 258 508 c 0
 258 234 481 76 657 76 c 0
EndSplineSet
Layer: 3
SplineSet
1145 504 m 0
 1145 236 943 100 877 57 c 0
 791 2 709 -35 594 -35 c 0
 311 -35 61 164 61 459 c 0
 61 760 322 997 627 997 c 2
 629 997 l 1
 926 995 1145 772 1145 504 c 0
657 76 m 0
 823 76 946 207 946 426 c 0
 946 674 796 881 573 881 c 0
 362 881 258 701 258 508 c 0
 258 234 481 76 657 76 c 0
EndSplineSet
EndChar

StartChar: p
Encoding: 112 112 15
Width: 1175
Flags: HW
HStem: -442 82<25 199.998 403.294 592> -20 126<458.29 749.907> 836 159<550.963 773.924> 870 82<25 186.537> 959 20G<392 399>
VStem: 207 194<-320.365 33 159.205 800.221> 930 184<293.763 669.35>
LayerCount: 4
Fore
SplineSet
395 -43 m 2
 395 -346 397 -360 451 -360 c 2
 592 -360 l 1
 592 -442 l 1
 25 -442 l 1
 25 -360 l 1
 152 -360 l 2
 195 -360 201 -336 201 -299 c 0
 205 -61 207 176 207 414 c 2
 207 632 l 2
 207 834 205 870 94 870 c 2
 25 870 l 1
 25 952 l 1
 98 952 l 2
 264 952 389 979 395 979 c 0xde
 403 979 408 973 408 963 c 2
 408 891 l 1
 414 889 l 1
 582 989 l 1
 611 993 637 995 666 995 c 0
 861 995 1114 900 1114 520 c 2
 1114 518 l 2
 1114 438 1112 256 926 123 c 1
 787 25 652 -20 584 -20 c 0
 510 -20 434 19 401 37 c 1
 395 33 l 1
 395 -43 l 2
612 106 m 0
 739 106 930 201 930 477 c 0
 930 706 788 836 604 836 c 0xe6
 534 836 462 817 401 780 c 1
 401 197 l 1
 458 136 538 106 612 106 c 0
EndSplineSet
Layer: 3
SplineSet
207 610 m 2xe6
 207.002259727 631.674239641 l 0
 207.002259727 833.577784055 205.134453782 870 94 870 c 2
 25 870 l 1
 25 952 l 1
 98 952 l 2
 264 952 389 979 395 979 c 0xde
 403 979 408 973 408 963 c 2
 408 891 l 1
 414 889 l 1
 582 989 l 1
 611 993 637 995 666 995 c 0
 889 995 1022 875 1073 754 c 0
 1104 680 1114 600 1114 520 c 2
 1114 518 l 2
 1114 438 1112 256 926 123 c 1
 787 25 652 -20 584 -20 c 0
 510 -20 434 19 401 37 c 1
 395 33 l 1
 395 -43 l 2
 395 -135 397 -289 403 -322 c 0
 409 -359 433 -360 451 -360 c 2
 592 -360 l 1
 592 -442 l 1
 25 -442 l 1
 25 -360 l 1
 152 -360 l 2
 195 -360 201 -336 201 -299 c 0
 205 -61 207 176 207 414 c 2
 207 610 l 2xe6
612 106 m 0
 739 106 930 201 930 477 c 0
 930 706 788 836 604 836 c 0xe6
 534 836 462 817 401 780 c 1
 401 197 l 1
 458 136 538 106 612 106 c 0
EndSplineSet
EndChar

StartChar: q
Encoding: 113 113 16
Width: 1140
Flags: HW
HStem: -442 82<608 782.077 987.203 1165> -20 129<440.924 683.188> 870 125<435.625 741.2>
VStem: 61 201<324.121 642.717> 784 195<-359.664 63 137.973 826.522>
LayerCount: 4
Fore
SplineSet
262 526 m 2
 262 344 371 109 594 109 c 0
 651 109 714 123 784 158 c 1
 784 797 l 1
 727 844 652 870 578 870 c 2
 575 870 l 1
 421 868 262 753 262 528 c 2
 262 526 l 2
987 948 m 0
 987 942 979 858 979 614 c 2
 979 418 l 2
 979 172 983 -302 987 -322 c 1
 991 -359 1016 -360 1034 -360 c 2
 1165 -360 l 1
 1165 -442 l 1
 608 -442 l 1
 608 -360 l 1
 735 -360 l 2
 774 -360 782 -342 784 -299 c 0
 788 -213 791 -129 791 -43 c 2
 791 63 l 1
 784 68 l 1
 608 -8 l 1
 575 -16 543 -20 508 -20 c 0
 268 -20 61 176 61 444 c 0
 61 772 377 993 633 995 c 1
 635 995 l 2
 780 995 865 932 877 932 c 0
 895 932 930 983 961 983 c 0
 971 983 987 977 987 948 c 0
EndSplineSet
Layer: 3
SplineSet
262 526 m 2
 262 344 371 109 594 109 c 0
 651 109 714 123 784 158 c 1
 784 797 l 1
 727 844 652 870 578 870 c 2
 575 870 l 1
 421 868 262 753 262 528 c 2
 262 526 l 2
987 948 m 0
 987 942 979 858 979 614 c 2
 979 418 l 2
 979 172 983 -302 987 -322 c 1
 991 -359 1016 -360 1034 -360 c 2
 1165 -360 l 1
 1165 -442 l 1
 608 -442 l 1
 608 -360 l 1
 735 -360 l 2
 774 -360 782 -342 784 -299 c 0
 788 -213 791 -129 791 -43 c 2
 791 63 l 1
 784 68 l 1
 608 -8 l 1
 575 -16 543 -20 508 -20 c 0
 268 -20 61 176 61 444 c 0
 61 772 377 993 633 995 c 1
 635 995 l 2
 780 995 865 932 877 932 c 0
 895 932 930 983 961 983 c 0
 971 983 987 977 987 948 c 0
EndSplineSet
EndChar

StartChar: r
Encoding: 114 114 17
Width: 817
Flags: HW
HStem: 0 82<27 199.077 410.587 582> 825 176<522.182 694> 870 82<25 186.537> 959 20G<392 399>
VStem: 207 194<82.6303 754.091>
LayerCount: 4
Fore
SplineSet
152 82 m 2
 204 82 207 95 207 414 c 2
 207 632 l 2
 207 834 205 870 94 870 c 2
 25 870 l 1
 25 952 l 1
 98 952 l 2
 264 952 389 979 395 979 c 0xb8
 403 979 408 973 408 963 c 2
 408 854 l 1
 414 852 l 1
 467 906 538 1001 653 1001 c 0xc8
 735 1001 793 942 793 870 c 0xa8
 793 768 690 717 641 717 c 0
 600 717 639 790 582 819 c 0
 574 823 565 825 555 825 c 0
 498 825 401 721 401 674 c 2
 401 412 l 2
 401 97 404 82 457 82 c 2
 582 82 l 1
 582 0 l 1
 27 0 l 1
 27 82 l 1
 152 82 l 2
EndSplineSet
Layer: 3
SplineSet
207 610 m 2xc8
 207.002259727 631.674239641 l 0
 207.002259727 833.577784055 205.134453782 870 94 870 c 2
 25 870 l 1
 25 952 l 1
 98 952 l 2
 264 952 389 979 395 979 c 0xb8
 403 979 408 973 408 963 c 2
 408 854 l 1
 414 852 l 1
 492 932 504.05889308 949.885235138 553 975 c 0
 584.037348666 990.927218707 618 1001 653 1001 c 0xc8
 735 1001 793 942 793 870 c 0xa8
 793 768 690 717 641 717 c 0
 600 717 639 790 582 819 c 0
 574 823 565 825 555 825 c 0
 498 825 401 721 401 674 c 2
 401 412 l 2
 401 97 404 82 457 82 c 2
 582 82 l 1
 582 0 l 1
 27 0 l 1
 27 82 l 1
 152 82 l 2
 191 82 199 100 201 143 c 0
 205 233 207 324 207 414 c 2
 207 610 l 2xc8
EndSplineSet
EndChar

StartChar: s
Encoding: 115 115 18
Width: 890
Flags: HW
HStem: -33 115<273.057 586.819> 891 113<296.248 581.989>
VStem: 86 156<657.01 825.211> 90 74<205.738 324> 635 164<148.581 329.795> 659 93<662 817.134>
LayerCount: 4
Fore
SplineSet
799 295 m 0
 799 103 597 -33 399 -33 c 0xe8
 299 -33 188 -8 90 66 c 1
 90 324 l 1
 164 324 l 1
 179 259 198 82 449 82 c 0
 594 82 635 172 635 233 c 0xd8
 635 450 250 338 123 537 c 0
 94 582 86 633 86 674 c 0
 86 898 339 1004 465 1004 c 2
 475 1004 l 2
 557 1004 660 983 752 922 c 1
 752 662 l 1
 659 662 l 1xe4
 636 758 645 801 582 848 c 0
 545 875 499 891 442 891 c 0
 329 891 242 834 242 748 c 0
 242 693 279 639 383 608 c 0
 528 565 799 553 799 295 c 0
EndSplineSet
Layer: 3
SplineSet
399 -33 m 0xe8
 299 -33 188 -8 90 66 c 1
 90 324 l 1
 164 324 l 1
 184 236 201 141 330 100 c 0
 369 88 408 82 449 82 c 0
 594 82 635 172 635 233 c 0xd8
 635 450 250.440264833 338.282347674 123 537 c 0
 94.0998406886 582.064029157 86 633 86 674 c 0
 86 834 205 909 260 942 c 1
 360 999 434 1004 465 1004 c 2
 475 1004 l 2
 557 1004 660 983 752 922 c 1
 752 662 l 1
 659 662 l 1xe4
 636 758 645 801 582 848 c 0
 545 875 499 891 442 891 c 0
 329 891 242 834 242 748 c 0
 242 693 279 639 383 608 c 0
 527.939600576 564.796849828 799 553 799 295 c 0
 799 107 617.929209469 9.26465120781 516 -18 c 0
 478.974285389 -27.9038656324 438 -33 399 -33 c 0xe8
EndSplineSet
EndChar

StartChar: t
Encoding: 116 116 19
Width: 657
Flags: HW
HStem: -20 163<334.5 481.035> 852 104<360 627> 852 78<25 150.807>
VStem: 166 196<159.559 852> 268 103<1082.81 1296>
LayerCount: 4
Fore
SplineSet
354 -20 m 0
 315 -20 166 -1 166 166 c 2
 166 852 l 1xb0
 25 852 l 1
 25 930 l 1
 105 940 133 944 172 989 c 0
 211 1034 258 1142 268 1296 c 1
 371 1296 l 1xa8
 356 956 l 1
 627 956 l 1
 627 852 l 1
 360 852 l 1
 362 416 362 362 362 307 c 2
 362 274 l 2xd0
 362 223 371 143 467 143 c 0
 518 143 569 173 610 193 c 1
 653 111 l 1
 408 -12 l 1
 392 -18 372 -20 354 -20 c 0
EndSplineSet
Layer: 3
SplineSet
362 274 m 2xd0
 362 223 371 143 467 143 c 0
 518 143 569 173 610 193 c 1
 653 111 l 1
 408 -12 l 1
 392 -18 372 -20 354 -20 c 0
 315 -20 209 0 176 94 c 0
 168 119 166 148 166 166 c 2
 166 852 l 1xb0
 25 852 l 1
 25 930 l 1
 105 940 133 944 172 989 c 0
 211 1034 258 1142 268 1296 c 1
 371 1296 l 1xa8
 356 956 l 1
 627 956 l 1
 627 852 l 1
 360 852 l 1
 362 416 362 362 362 307 c 2
 362 274 l 2xd0
EndSplineSet
EndChar

StartChar: u
Encoding: 117 117 20
Width: 1230
Flags: HW
HStem: -16 155<475.954 621.64> 0 82<1032.37 1206> 870 82<25 181.041 651 811.708> 959 20G<385 392 1018 1022>
VStem: 195 194<219.406 861.719> 831 195<82.3793 119 182.329 865.34>
LayerCount: 4
Fore
SplineSet
389 367 m 0
 389 185 526 139 623 139 c 2
 625 139 l 2
 727 139 798 186 831 213 c 1
 831 618 l 2
 831 835 826 870 754 870 c 2
 651 870 l 1
 651 952 l 1
 723 952 l 2
 889 952 1016 979 1020 979 c 0
 1024 979 1032 977 1032 965 c 0xbc
 1032 930 1026 895 1026 612 c 2
 1026 311 l 2
 1026 98 1028 82 1081 82 c 2
 1206 82 l 1
 1206 0 l 1
 829 0 l 1x7c
 831 119 l 1
 825 123 l 1
 623 -10 l 1
 594 -14 564 -16 535 -16 c 0
 263 -16 195 176 195 344 c 0
 195 375 199 592 199 655 c 0
 199 835 192 870 96 870 c 2
 25 870 l 1
 25 952 l 1
 84 952 l 2
 252 952 383 979 387 979 c 0
 397 979 399 971 399 965 c 0
 399 844 389 486 389 367 c 0
EndSplineSet
Layer: 3
SplineSet
1032 965 m 0xbc
 1032 930 1026 895 1026 612 c 2
 1026 311 l 2
 1026 98 1028 82 1081 82 c 2
 1206 82 l 1
 1206 0 l 1
 829 0 l 1x7c
 831 119 l 1
 825 123 l 1
 623 -10 l 1
 594 -14 564 -16 535 -16 c 0
 424 -16 287 14 221 180 c 0
 201 231 195 289 195 344 c 0
 195 375 199 592 199 655 c 0
 199 835 192 870 96 870 c 2
 25 870 l 1
 25 952 l 1
 84 952 l 2
 252 952 383 979 387 979 c 0
 397 979 399 971 399 965 c 0
 399 844 389 486 389 367 c 0
 389 279 414 244 432 221 c 0
 471 172 541 139 623 139 c 2
 625 139 l 2
 727 139 798 186 831 213 c 1
 831 618 l 2
 831 835 826 870 754 870 c 2
 651 870 l 1
 651 952 l 1
 723 952 l 2
 889 952 1016 979 1020 979 c 0
 1024 979 1032 977 1032 965 c 0xbc
EndSplineSet
EndChar

StartChar: v
Encoding: 118 118 21
Width: 1126
Flags: HW
HStem: 870 82<25 167.88 393.005 518 698 832.931 970.907 1102>
LayerCount: 4
Fore
SplineSet
827 870 m 2
 698 870 l 1
 698 952 l 1
 1102 952 l 1
 1102 870 l 1
 1032 870 l 2
 993 870 985 866 950 786 c 0
 600 -35 608 -23 596 -33 c 0
 588 -39 579 -43 569 -43 c 0
 542 -43 532 -22 526 -8 c 0
 151 867 166 856 141 866 c 0
 133 870 127 870 113 870 c 2
 25 870 l 1
 25 952 l 1
 518 952 l 1
 518 870 l 1
 408 870 l 2
 400 870 393 868 393 858 c 0
 393 850 410 803 424 766 c 2
 606 301 l 1
 616 301 l 1
 837 833 842 842 842 856 c 2
 842 858 l 2
 842 868 835 870 827 870 c 2
EndSplineSet
Layer: 3
SplineSet
827 870 m 2
 698 870 l 1
 698 952 l 1
 1102 952 l 1
 1102 870 l 1
 1032 870 l 2
 993 870 985 866 950 786 c 0
 600 -35 608 -23 596 -33 c 0
 588 -39 579 -43 569 -43 c 0
 542 -43 532 -22 526 -8 c 0
 151 867 166 856 141 866 c 0
 133 870 127 870 113 870 c 2
 25 870 l 1
 25 952 l 1
 518 952 l 1
 518 870 l 1
 408 870 l 2
 400 870 393 868 393 858 c 0
 393 850 410 803 424 766 c 2
 606 301 l 1
 616 301 l 1
 837 833 842 842 842 856 c 2
 842 858 l 2
 842 868 835 870 827 870 c 2
EndSplineSet
EndChar

StartChar: w
Encoding: 119 119 22
Width: 1703
Flags: HW
HStem: 870 82<25 146.717 369.007 500 692 831 1010.05 1116 1268 1406.99 1530.6 1679>
VStem: 831 177<732.997 870>
LayerCount: 4
Fore
SplineSet
831 829 m 1
 831 829 827 870 803 870 c 2
 692 870 l 1
 692 952 l 1
 1116 952 l 1
 1116 870 l 1
 1047 870 l 2
 1033 870 1008 869 1008 844 c 2
 1008 842 l 2
 1008 822 1010 819 1182 307 c 1
 1190 307 l 1
 1362 725 1407 831 1407 854 c 0
 1407 866 1399 870 1389 870 c 2
 1268 870 l 1
 1268 952 l 1
 1679 952 l 1
 1679 870 l 1
 1585 870 l 2
 1552 870 1546 862 1538 846 c 0
 1497 762 1200 18 1188 2 c 1
 1176 -21 1153 -23 1145 -23 c 0
 1116 -23 1104 -4 1098 16 c 2
 883 692 l 1
 874 692 l 1
 557 -17 565 -2 551 -14 c 0
 543 -20 532 -23 520 -23 c 0
 493 -23 481 -6 475 12 c 0
 151 860 149 860 147 862 c 0
 141 870 133 870 121 870 c 2
 25 870 l 1
 25 952 l 1
 500 952 l 1
 500 870 l 1
 387 870 l 2
 379 870 369 868 369 856 c 0
 369 842 394 770 414 715 c 2
 573 297 l 1
 584 297 l 1
 828 817 831 817 831 828 c 2
 831 829 l 1
EndSplineSet
Layer: 3
SplineSet
831 829 m 2
 831 829.015217527 827.166629825 870 803 870 c 2
 692 870 l 1
 692 952 l 1
 1116 952 l 1
 1116 870 l 1
 1047 870 l 2
 1033 870 1008 869 1008 844 c 2
 1008 842 l 2
 1008 822 1010 819 1182 307 c 1
 1190 307 l 1
 1362 725 1407 831 1407 854 c 0
 1407 866 1399 870 1389 870 c 2
 1268 870 l 1
 1268 952 l 1
 1679 952 l 1
 1679 870 l 1
 1585 870 l 2
 1552 870 1546 862 1538 846 c 0
 1497 762 1200 18 1188 2 c 1
 1176 -21 1153 -23 1145 -23 c 0
 1116 -23 1104 -4 1098 16 c 2
 883 692 l 1
 874 692 l 1
 557 -17 565 -2 551 -14 c 0
 543 -20 532 -23 520 -23 c 0
 493 -23 481 -6 475 12 c 0
 151 860 149 860 147 862 c 0
 141 870 133 870 121 870 c 2
 25 870 l 1
 25 952 l 1
 500 952 l 1
 500 870 l 1
 387 870 l 2
 379 870 369 868 369 856 c 0
 369 842 394 770 414 715 c 2
 573 297 l 1
 584 297 l 1
 828.140625 816.783266129 831.001647949 817.275485131 831.001647949 828.188903316 c 2
 831 829 l 2
EndSplineSet
EndChar

StartChar: x
Encoding: 120 120 23
Width: 1126
Flags: HW
HStem: 0 82<25 173.938 315.011 444 602 738.985 976.08 1102> 870 82<57 214.208 418.006 547 668 781.991 900.93 1061>
LayerCount: 4
Fore
SplineSet
475 483 m 1
 186 870 201 870 150 870 c 2
 57 870 l 1
 57 952 l 1
 547 952 l 1
 547 870 l 1
 436 870 l 2
 426 870 418 868 418 860 c 0
 418 852 418 854 592 618 c 1
 596 618 l 1
 762 823 782 846 782 854 c 0
 782 866 770 870 756 870 c 2
 668 870 l 1
 668 952 l 1
 1061 952 l 1
 1061 870 l 1
 973 870 l 2
 938 870 928 862 895 823 c 1
 664 537 l 1
 664 528 l 1
 766 387 965 118 975 106 c 1
 998 83 1024 82 1038 82 c 2
 1102 82 l 1
 1102 0 l 1
 602 0 l 1
 602 82 l 1
 698 82 l 2
 718 82 739 82 739 102 c 0
 739 125 633 268 545 391 c 1
 539 391 l 1
 418 244 315 125 315 102 c 0
 315 86 330 82 344 82 c 2
 444 82 l 1
 444 0 l 1
 25 0 l 1
 25 82 l 1
 78 82 l 2
 119 82 143 86 188 137 c 1
 475 475 l 1
 475 483 l 1
EndSplineSet
Layer: 3
SplineSet
782 854 m 0
 782 866 770 870 756 870 c 2
 668 870 l 1
 668 952 l 1
 1061 952 l 1
 1061 870 l 1
 973 870 l 2
 938 870 928 862 895 823 c 1
 664 537 l 1
 664 528 l 1
 766 387 965 118 975 106 c 1
 998 83 1024 82 1038 82 c 2
 1102 82 l 1
 1102 0 l 1
 602 0 l 1
 602 82 l 1
 698 82 l 2
 718 82 739 82 739 102 c 0
 739 125 633 268 545 391 c 1
 539 391 l 1
 418 244 315 125 315 102 c 0
 315 86 330 82 344 82 c 2
 444 82 l 1
 444 0 l 1
 25 0 l 1
 25 82 l 1
 78 82 l 2
 119 82 143 86 188 137 c 1
 475 475 l 1
 475 483 l 1
 182 876 199 862 170 868 c 0
 164 870 156 870 150 870 c 2
 57 870 l 1
 57 952 l 1
 547 952 l 1
 547 870 l 1
 436 870 l 2
 426 870 418 868 418 860 c 0
 418 852 418 854 592 618 c 1
 596 618 l 1
 762 823 782 846 782 854 c 0
EndSplineSet
EndChar

StartChar: y
Encoding: 121 121 24
Width: 1175
Flags: HW
HStem: -438 157<244 369.479> 870 82<25 172.577 385.014 535 709 855.989 988.609 1151>
LayerCount: 4
Fore
SplineSet
420 870 m 2
 404 870 385 868 385 848 c 0
 385 828 387 830 612 293 c 1
 621 293 l 1
 787 676 856 828 856 848 c 0
 856 866 841 870 827 870 c 2
 709 870 l 1
 709 952 l 1
 1151 952 l 1
 1151 870 l 1
 1040 870 l 2
 1005 870 1003 864 954 758 c 1
 456 -346 481 -303 446 -348 c 1
 385 -430 310 -438 281 -438 c 0
 207 -438 145 -387 145 -317 c 0
 145 -258 191 -207 254 -207 c 0
 299 -207 270 -241 299 -270 c 0
 305 -276 314 -281 322 -281 c 0
 336 -281 360 -264 397 -186 c 0
 487 9 504 36 504 59 c 0
 504 71 500 80 496 90 c 0
 165 855 174 870 124 870 c 2
 25 870 l 1
 25 952 l 1
 535 952 l 1
 535 870 l 1
 420 870 l 2
EndSplineSet
Layer: 3
SplineSet
420 870 m 2
 404 870 385 868 385 848 c 0
 385 828 387 830 612 293 c 1
 621 293 l 1
 787 676 856 828 856 848 c 0
 856 866 841 870 827 870 c 2
 709 870 l 1
 709 952 l 1
 1151 952 l 1
 1151 870 l 1
 1040 870 l 2
 1005 870 1003 864 954 758 c 1
 456 -346 481 -303 446 -348 c 1
 385 -430 310 -438 281 -438 c 0
 207 -438 145 -387 145 -317 c 0
 145 -258 191 -207 254 -207 c 0
 299 -207 270 -241 299 -270 c 0
 305 -276 314 -281 322 -281 c 0
 336 -281 360 -264 397 -186 c 0
 487 9 504 36 504 59 c 0
 504 71 500 80 496 90 c 0
 158 872 172 856 139 868 c 0
 131 870 125 870 117 870 c 2
 25 870 l 1
 25 952 l 1
 535 952 l 1
 535 870 l 1
 420 870 l 2
EndSplineSet
EndChar

StartChar: z
Encoding: 122 122 25
Width: 962
Flags: HW
HStem: 0 117<315 770.492> 864 109<216.733 639>
VStem: 102 78<651 822.051> 797 75<141.193 303>
LayerCount: 4
Fore
SplineSet
283 864 m 2
 224 864 207 831 180 651 c 1
 102 651 l 1
 102 952 l 2
 102 966 107 973 123 973 c 2
 901 973 l 2
 924 973 926 960 926 954 c 0
 926 944 919 936 915 930 c 2
 313 121 l 1
 315 117 l 1
 452 119 717 125 729 127 c 0
 776 131 772 162 797 303 c 1
 872 303 l 1
 878 76 881 47 881 18 c 0
 881 2 870 0 856 0 c 2
 49 0 l 2
 39 0 25 2 25 18 c 0
 25 28 33 39 37 45 c 2
 643 858 l 1
 639 864 l 1
 283 864 l 2
EndSplineSet
Layer: 3
SplineSet
283 864 m 2
 224 864 207 831 180 651 c 1
 102 651 l 1
 102 952 l 2
 102 966 107 973 123 973 c 2
 901 973 l 2
 924 973 926 960 926 954 c 0
 926 944 919 936 915 930 c 2
 313 121 l 1
 315 117 l 1
 452 119 717 125 729 127 c 0
 776 131 772 162 797 303 c 1
 872 303 l 1
 878 76 881 47 881 18 c 0
 881 2 870 0 856 0 c 2
 49 0 l 2
 39 0 25 2 25 18 c 0
 25 28 33 39 37 45 c 2
 643 858 l 1
 639 864 l 1
 283 864 l 2
EndSplineSet
EndChar

StartChar: A
Encoding: 65 65 26
Width: 1536
Flags: HW
HStem: 0 94<39 227.25 373.01 549 956 1125.98 1389 1497> 469 98<545 948> 1416 20G<781 806>
LayerCount: 4
Fore
SplineSet
788 1436 m 2
 803 1436 l 2
 809 1436 821 1433 825 1419 c 1
 1366 88 1348 112 1389 98 c 1
 1430 94 l 1
 1497 94 l 1
 1497 0 l 1
 956 0 l 1
 956 94 l 1
 1079 94 l 2
 1093 94 1126 94 1126 123 c 0
 1126 156 1079 264 997 469 c 1
 502 469 l 1
 373 145 373 142 373 119 c 0
 373 99 387 94 410 94 c 2
 549 94 l 1
 549 0 l 1
 39 0 l 1
 39 94 l 1
 156 94 l 2
 207 94 221 107 283 258 c 0
 756 1413 758 1421 762 1425 c 0
 768 1433 774 1436 788 1436 c 2
539 575 m 1
 545 567 l 1
 948 567 l 1
 954 573 l 1
 752 1096 l 1
 743 1096 l 1
 539 575 l 1
EndSplineSet
Layer: 3
SplineSet
788 1436 m 2
 803 1436 l 2
 809 1436 821 1433 825 1419 c 1
 1366 88 1348 112 1389 98 c 1
 1430 94 l 1
 1497 94 l 1
 1497 0 l 1
 956 0 l 1
 956 94 l 1
 1079 94 l 2
 1093 94 1126 94 1126 123 c 0
 1126 156 1079 264 997 469 c 1
 502 469 l 1
 373 145 373 142 373 119 c 0
 373 99 387 94 410 94 c 2
 549 94 l 1
 549 0 l 1
 39 0 l 1
 39 94 l 1
 156 94 l 2
 207 94 221 107 283 258 c 0
 756 1413 758 1421 762 1425 c 0
 768 1433 774 1436 788 1436 c 2
539 575 m 1
 545 567 l 1
 948 567 l 1
 954 573 l 1
 752 1096 l 1
 743 1096 l 1
 539 575 l 1
EndSplineSet
EndChar

StartChar: B
Encoding: 66 66 27
Width: 1318
Flags: HW
HStem: 0 121<442.029 865.572> 0 94<39 226.676> 723 100<444.089 772.842> 1298 113<444.347 780.248> 1317 94<39 229.084>
VStem: 233 209<121.142 722.947 823 1297.03> 879 213<944.423 1204.2> 1006 227<251.247 563.003>
LayerCount: 4
Fore
SplineSet
233 360 m 0
 233 627.333333333 233 894.666666667 233 1162 c 0
 233 1307 228 1317 180 1317 c 2
 39 1317 l 1
 39 1411 l 1
 328 1411 l 2
 445 1411 561 1417 678 1417 c 2
 686 1417 l 2
 850 1417 948 1385 1016 1311 c 1
 1071 1254 1092 1178 1092 1106 c 2
 1092 1104 l 2x6e
 1092 983 1037 881 881 805 c 1
 881 799 l 1
 1112 740 1233 555 1233 391 c 0
 1233 244 1133 81 918 20 c 1
 893 14 818 -8 666 -8 c 0x6d
 564 -8 460 0 358 0 c 2
 39 0 l 1
 39 94 l 1
 176 94 l 2
 231 94 233 110 233 360 c 0
492 723 m 2
 467 723 442 721 442 682 c 2
 442 170 l 2
 442 137 446 121 479 121 c 2
 537 121 l 2
 773 121 922 135 985 299 c 1
 997 334 1006 371 1006 408 c 0xa5
 1006 562 889 684 754 713 c 0
 709 723 661 723 614 723 c 2
 492 723 l 2
500 1298 m 2x36
 463 1298 444 1288 444 1245 c 2
 444 856 l 2
 444 836 449 823 469 823 c 2
 569 823 l 2
 647 823 791 829 852 950 c 0
 870 985 879 1024 879 1063 c 0
 879 1120 856 1270 668 1294 c 0
 637 1298 606 1298 575 1298 c 2
 500 1298 l 2x36
EndSplineSet
Layer: 3
SplineSet
666 -8 m 0x6d
 564 -8 460 0 358 0 c 2
 39 0 l 1
 39 94 l 1
 176 94 l 2
 217 94 225 112 227 143 c 0
 231 215 233 288 233 360 c 2
 233 1024 l 2
 233 1303 229 1293 219 1305 c 1
 211 1313 200 1317 180 1317 c 2
 39 1317 l 1
 39 1411 l 1
 328 1411 l 2
 445 1411 561 1417 678 1417 c 2
 686 1417 l 2
 850 1417 948 1385 1016 1311 c 1
 1071 1254 1092 1178 1092 1106 c 2
 1092 1104 l 2x6e
 1092 983 1037 881 881 805 c 1
 881 799 l 1
 1112 740 1233 555 1233 391 c 0
 1233 244 1133 81 918 20 c 1
 893 14 818 -8 666 -8 c 0x6d
492 723 m 2
 467 723 442 721 442 682 c 2
 442 170 l 2
 442 137 446 121 479 121 c 2
 537 121 l 2
 773 121 922 135 985 299 c 1
 997 334 1006 371 1006 408 c 0xa5
 1006 562 888.895801929 683.523155127 754 713 c 0
 708.965213611 722.840805965 661 723 614 723 c 2
 492 723 l 2
500 1298 m 2x36
 463 1298 444 1288 444 1245 c 2
 444 856 l 2
 444 836 449 823 469 823 c 2
 569 823 l 2
 647 823 790.513195503 829.247880145 852 950 c 0
 869.858609478 985.071995849 879 1024 879 1063 c 0
 879 1120 855.922201794 1270.38100622 668 1294 c 0
 636.987160946 1297.89784733 606 1298 575 1298 c 2
 500 1298 l 2x36
EndSplineSet
EndChar

StartChar: C
Encoding: 67 67 28
Width: 1560
Flags: HW
HStem: -45 139<708.838 1141.44> 995 21G<1271 1376> 1327 119<708.279 1094.75>
VStem: 109 249<471.101 930.981> 1276 100<995 1151.25> 1339 78<283.272 465>
LayerCount: 4
Fore
SplineSet
901 1327 m 0xf8
 686 1327 358 1161 358 731 c 0
 358 356 596 94 930 94 c 0
 1100 94 1250 166 1305 289 c 0
 1328 342 1333 418 1339 465 c 1
 1417 465 l 1
 1417 92 l 1xf4
 1237 -10 1055 -45 901 -45 c 0
 469 -45 109 244 109 680 c 0
 109 1075 417 1446 911 1446 c 0
 1073 1446 1233 1405 1376 1331 c 1
 1376 995 l 1
 1276 995 l 1
 1266 1224 1085 1327 901 1327 c 0xf8
EndSplineSet
Layer: 3
SplineSet
901 1327 m 0xf8
 686 1327 358 1161 358 731 c 0
 358 356 596 94 930 94 c 0
 1100 94 1250 166 1305 289 c 0
 1328 342 1333 418 1339 465 c 1
 1417 465 l 1
 1417 92 l 1xf4
 1237 -10 1055 -45 901 -45 c 0
 469 -45 109 244 109 680 c 0
 109 1075 417 1446 911 1446 c 0
 1073 1446 1233 1405 1376 1331 c 1
 1376 995 l 1
 1276 995 l 1
 1266 1224 1085 1327 901 1327 c 0xf8
EndSplineSet
EndChar

StartChar: D
Encoding: 68 68 29
Width: 1566
Flags: HW
HStem: -8 117<480.749 948.266> 0 94<39 225.113> 1290 121<444.062 874.192> 1317 94<39 228.615>
VStem: 233 211<154.825 1289.65> 1231 227<482.245 936.998>
LayerCount: 4
Fore
SplineSet
180 94 m 2x4c
 226 94 233 109 233 360 c 2
 233 1024 l 2
 233 1032 233 1270 229 1286 c 0
 221 1313 199 1317 174 1317 c 2
 39 1317 l 1
 39 1411 l 1
 352 1411 l 2
 458 1411 568 1417 674 1417 c 2
 680 1417 l 2
 938 1417 1142 1368 1294 1196 c 0
 1394 1083 1458 927 1458 745 c 2
 1458 743 l 2
 1458 471 1321 206 1100 82 c 0
 973 11 821 -8 676 -8 c 0x9c
 574 -8 471 0 369 0 c 2
 39 0 l 1
 39 94 l 1
 180 94 l 2x4c
444 1241 m 2
 444 182 l 2
 444 164 444 141 477 135 c 0
 557 119 635 109 719 109 c 0
 869 109 1065 145 1169 385 c 0
 1210 479 1231 584 1231 688 c 0
 1231 969 1084 1169 877 1247 c 0
 766 1288 645 1290 528 1290 c 2
 494 1290 l 2xac
 453 1290 444 1272 444 1241 c 2
EndSplineSet
Layer: 3
SplineSet
676 -8 m 0x9c
 574 -8 471 0 369 0 c 2
 39 0 l 1
 39 94 l 1
 180 94 l 2x4c
 217 94 223 111 227 154 c 1
 231 224 233 290 233 360 c 2
 233 1024 l 2
 233 1032 233 1270 229 1286 c 0
 221 1313 199 1317 174 1317 c 2
 39 1317 l 1
 39 1411 l 1
 352 1411 l 2
 458 1411 568 1417 674 1417 c 2
 680 1417 l 2
 938 1417 1141.94042708 1367.9473174 1294 1196 c 0
 1393.96083799 1082.96536754 1458 927 1458 745 c 2
 1458 743 l 2
 1458 471 1321 206 1100 82 c 0
 973 11 821 -8 676 -8 c 0x9c
444 1241 m 2
 444 182 l 2
 444 164 444 141 477 135 c 0
 557 119 635 109 719 109 c 0
 869 109 1064.71383806 145.124409202 1169 385 c 0
 1209.88780359 479.048777507 1231 584 1231 688 c 0
 1231 969 1084 1169 877 1247 c 0
 766 1288 645 1290 528 1290 c 2
 494 1290 l 2xac
 453 1290 444 1272 444 1241 c 2
EndSplineSet
EndChar

StartChar: E
Encoding: 69 69 30
Width: 1183
Flags: HW
HStem: 0 133<442 945.671> 0 94<39 222.932> 719 108<444 886.812> 957 20G<887 975> 1292 119<444 968.843> 1317 94<39 222.528>
VStem: 233 209<134.578 719 827 1291.51> 889 86<569 719 827 977> 1004 86<1112 1266.8> 1038 78<195.389 362>
LayerCount: 4
Fore
SplineSet
233 360 m 0
 233 629 233 898 233 1167 c 0
 233 1299 229 1317 193 1317 c 2
 39 1317 l 1
 39 1411 l 1
 348 1411 l 2
 588 1411 829 1411 1069 1415 c 1
 1071 1415 l 2
 1085 1415 1090 1407 1090 1397 c 2
 1090 1112 l 1
 1004 1112 l 1x7780
 998 1231 1001 1266 938 1272 c 0
 799 1286 660 1292 510 1292 c 2
 489 1292 l 2
 466 1292 444 1288 444 1257 c 2
 444 827 l 1
 856 827 l 2
 885 827 887 843 887 870 c 2
 887 977 l 1
 975 977 l 1
 975 569 l 1
 889 569 l 1
 889 684 l 2
 889 704 883 719 848 719 c 2
 442 719 l 1
 442 172 l 2
 442 156 444 133 473 133 c 0
 489 133 774 148 924 156 c 0
 1008 161 1015 210 1038 362 c 1
 1116 362 l 1
 1116 14 l 2
 1116 2 1112 -4 1100 -4 c 0xbb40
 1024 -4 948 0 348 0 c 2
 39 0 l 1
 39 94 l 1
 168 94 l 2
 224 94 233 116 233 360 c 0
EndSplineSet
Layer: 3
SplineSet
1100 -4 m 0xbb40
 1024 -4 948 0 348 0 c 2
 39 0 l 1
 39 94 l 1
 168 94 l 2
 219 94 223 123 227 174 c 0
 231 235 233 299 233 360 c 2
 233 1024 l 2
 233 1251 233 1289 223 1303 c 1
 213 1315 199 1317 193 1317 c 2
 39 1317 l 1
 39 1411 l 1
 348 1411 l 2
 588 1411 829 1411 1069 1415 c 1
 1071 1415 l 2
 1085 1415 1090 1407 1090 1397 c 2
 1090 1112 l 1
 1004 1112 l 1x7780
 998 1231 1000.98324824 1265.82902536 938 1272 c 0
 798.963020104 1285.62256951 660 1292 510 1292 c 2
 489 1292 l 2
 466 1292 444 1288 444 1257 c 2
 444 827 l 1
 856 827 l 2
 885 827 887 843 887 870 c 2
 887 977 l 1
 975 977 l 1
 975 569 l 1
 889 569 l 1
 889 684 l 2
 889 704 883 719 848 719 c 2
 442 719 l 1
 442 172 l 2
 442 156 444 133 473 133 c 0
 489 133 774 148 924 156 c 0
 1008 161 1015 210 1038 362 c 1
 1116 362 l 1
 1116 14 l 2
 1116 2 1112 -4 1100 -4 c 0xbb40
EndSplineSet
EndChar

StartChar: F
Encoding: 70 70 31
Width: 1146
Flags: HW
HStem: 0 94<39 226.563 448.547 647> 719 108<444 886.812> 957 20G<887 975> 1292 119<444 968.843> 1317 94<39 222.528>
VStem: 233 211<95.1869 719 827 1291.51> 889 86<569 719 827 977> 1004 86<1112 1266.8>
LayerCount: 4
Fore
SplineSet
233 360 m 0
 233 629 233 898 233 1167 c 0
 233 1299 229 1317 193 1317 c 2
 39 1317 l 1
 39 1411 l 1
 348 1411 l 2xef
 588 1411 829 1411 1069 1415 c 1
 1071 1415 l 2
 1085 1415 1090 1407 1090 1397 c 2
 1090 1112 l 1
 1004 1112 l 1
 998 1231 1001 1266 938 1272 c 0
 799 1286 660 1292 510 1292 c 2
 489 1292 l 2
 466 1292 444 1288 444 1257 c 2
 444 827 l 1
 856 827 l 2
 885 827 887 843 887 870 c 2
 887 977 l 1
 975 977 l 1
 975 569 l 1
 889 569 l 1
 889 684 l 2
 889 704 883 719 848 719 c 2
 442 719 l 1
 442 320 l 2
 442 112 444 94 506 94 c 2
 647 94 l 1
 647 0 l 1
 39 0 l 1
 39 94 l 1
 168 94 l 2
 232 94 233 107 233 360 c 0
EndSplineSet
Layer: 3
SplineSet
442 360 m 2xf7
 441.993469388 320.004011662 l 0
 441.993469388 111.779591837 443.771428571 94 506 94 c 2
 647 94 l 1
 647 0 l 1
 39 0 l 1
 39 94 l 1
 168 94 l 2
 203 94 224.806105275 100.009894942 227 143 c 0
 230.675189577 215.016575904 233 288 233 360 c 2
 233 1024 l 2
 233 1251 233 1289 223 1303 c 1
 213 1315 199 1317 193 1317 c 2
 39 1317 l 1
 39 1411 l 1
 348 1411 l 2xef
 588 1411 829 1411 1069 1415 c 1
 1071 1415 l 2
 1085 1415 1090 1407 1090 1397 c 2
 1090 1112 l 1
 1004 1112 l 1
 998 1231 1000.98324824 1265.82902536 938 1272 c 0
 798.963020104 1285.62256951 660 1292 510 1292 c 2
 489 1292 l 2
 466 1292 444 1288 444 1257 c 2
 444 827 l 1
 856 827 l 2
 885 827 887 843 887 870 c 2
 887 977 l 1
 975 977 l 1
 975 569 l 1
 889 569 l 1
 889 684 l 2
 889 704 883 719 848 719 c 2
 442 719 l 1
 442 360 l 2xf7
EndSplineSet
EndChar

StartChar: G
Encoding: 71 71 32
Width: 1634
Flags: HW
HStem: -45 141<704.996 1150.05> 573 107<946 1241.84 1428.16 1583> 995 21G<1264.5 1395> 1327 119<700.71 1096.99>
VStem: 109 249<471.56 933.227> 1243 184<167.414 573> 1294 101<995 1121.23>
LayerCount: 4
Fore
SplineSet
109 684 m 0
 109 1076 425 1446 903 1446 c 0
 1046 1446 1216 1411 1380 1313 c 1
 1395 995 l 1
 1294 995 l 1xfa
 1235 1308 981 1327 903 1327 c 0
 688 1327 360 1161 358 737 c 1
 358 735 l 2
 358 381 569 96 938 96 c 0
 1044 96 1157 121 1243 201 c 1
 1243 469 l 2
 1243 559 1241 573 1206 573 c 2xfc
 946 573 l 1
 946 680 l 1
 1583 680 l 1
 1583 573 l 1
 1464 573 l 2
 1429 573 1427 559 1427 469 c 2
 1427 117 l 2xfc
 1427 105 1425 100 1411 92 c 0
 1286 22 1100 -45 893 -45 c 0
 424 -45 109 293 109 684 c 0
EndSplineSet
Layer: 3
SplineSet
1206 573 m 2xfc
 946 573 l 1
 946 680 l 1
 1583 680 l 1
 1583 573 l 1
 1464 573 l 2
 1429 573 1427 559 1427 469 c 2
 1427 117 l 2xfc
 1427 105 1425 100 1411 92 c 0
 1286 22 1100 -45 893 -45 c 0
 424 -45 109 293 109 684 c 0
 109 934 242.132520096 1173.80512481 438 1307 c 0
 573.091400192 1398.86559299 739 1446 903 1446 c 0
 1046 1446 1216 1411 1380 1313 c 1
 1395 995 l 1
 1294 995 l 1xfa
 1235 1308 981 1327 903 1327 c 0
 688 1327 360 1161 358 737 c 1
 358 735 l 2
 358 381 569 96 938 96 c 0
 1044 96 1157 121 1243 201 c 1
 1243 469 l 2
 1243 559 1241 573 1206 573 c 2xfc
EndSplineSet
EndChar

StartChar: H
Encoding: 72 72 33
Width: 1673
Flags: HW
HStem: 0 94<39 226.662 455.575 639 1034 1222.66 1450.57 1634> 719 106<444 1229> 1317 94<39 226.61 446.075 639 1034 1222.61 1442.07 1634>
VStem: 233 211<121.922 716.809 826.136 1315.7> 1229 211<121.922 718.5 827.19 1315.65>
LayerCount: 4
Fore
SplineSet
444 360 m 2
 444 112 444 94 514 94 c 2
 639 94 l 1
 639 0 l 1
 39 0 l 1
 39 94 l 1
 162 94 l 2
 215 94 225 110 227 143 c 0
 231 215 233 288 233 360 c 0
 233 626 233 892 233 1158 c 0
 233 1306 227 1317 166 1317 c 2
 39 1317 l 1
 39 1411 l 1
 639 1411 l 1
 639 1317 l 1
 508 1317 l 2
 457 1317 446 1299 446 1268 c 0
 444 1186 444 1106 444 1024 c 2
 444 842 l 2
 444 834 447 827 459 827 c 0
 514 825 570 825 625 825 c 0
 802.333333333 825 979.666666667 825 1157 825 c 0
 1229 825 1229 827 1229 844 c 0
 1229 949 1229 1054 1229 1159 c 0
 1229 1306 1223 1317 1161 1317 c 2
 1034 1317 l 1
 1034 1411 l 1
 1634 1411 l 1
 1634 1317 l 1
 1503 1317 l 2
 1452 1317 1442 1299 1442 1268 c 0
 1440 1186 1440 1106 1440 1024 c 2
 1440 308 l 2
 1440 111 1442 94 1509 94 c 2
 1634 94 l 1
 1634 0 l 1
 1034 0 l 1
 1034 94 l 1
 1157 94 l 2
 1210 94 1221 110 1223 143 c 0
 1227 215 1229 288 1229 360 c 2
 1229 705 l 2
 1229 717 1226 719 1130 719 c 0
 931 719 732 719 533 719 c 0
 445 719 444 717 444 700 c 2
 444 360 l 2
EndSplineSet
Layer: 3
SplineSet
39 94 m 1
 162 94 l 2
 215 94 225 110 227 143 c 0
 231 215 233 288 233 360 c 2
 233 1024 l 2
 233 1034 233 1270 227 1286 c 1
 219 1315 191 1317 166 1317 c 2
 39 1317 l 1
 39 1411 l 1
 639 1411 l 1
 639 1317 l 1
 508 1317 l 2
 457 1317 446 1299 446 1268 c 0
 444 1186 444 1106 444 1024 c 2
 444 842 l 2
 444 834 447 827 459 827 c 0
 514 825 570 825 625 825 c 2
 1049 825 l 2
 1057 825 1215 825 1221 827 c 0
 1229 831 1229 838 1229 844 c 2
 1229 1024 l 2
 1229 1034 1229 1270 1223 1286 c 1
 1215 1315 1186 1317 1161 1317 c 2
 1034 1317 l 1
 1034 1411 l 1
 1634 1411 l 1
 1634 1317 l 1
 1503 1317 l 2
 1452 1317 1442 1299 1442 1268 c 0
 1440 1186 1440 1106 1440 1024 c 2
 1440 360 l 2
 1440 264 1442 139 1450 121 c 0
 1462 94 1491 94 1509 94 c 2
 1634 94 l 1
 1634 0 l 1
 1034 0 l 1
 1034 94 l 1
 1157 94 l 2
 1210 94 1221 110 1223 143 c 0
 1227 215 1229 288 1229 360 c 2
 1229 705 l 2
 1229 717 1226 719 1130 719 c 2
 625 719 l 2
 621 719 461 719 455 717 c 0
 445 713 444 704 444 700 c 2
 444 360 l 2
 444 264 447 139 455 121 c 0
 467 94 496 94 514 94 c 2
 639 94 l 1
 639 0 l 1
 39 0 l 1
 39 94 l 1
EndSplineSet
EndChar

StartChar: I
Encoding: 73 73 34
Width: 677
Flags: HW
HStem: 0 94<39 226.662 455.575 639> 1317 94<39 230.855 446.075 639>
VStem: 233 211<121.922 1315.8>
LayerCount: 4
Fore
SplineSet
444 360 m 2
 444 112 444 94 514 94 c 2
 639 94 l 1
 639 0 l 1
 39 0 l 1
 39 94 l 1
 162 94 l 2
 215 94 225 110 227 143 c 0
 231 215 233 288 233 360 c 2
 233 1024 l 2
 233 1106 233 1186 231 1268 c 0
 231 1309 209 1317 170 1317 c 2
 39 1317 l 1
 39 1411 l 1
 639 1411 l 1
 639 1317 l 1
 508 1317 l 2
 457 1317 446 1299 446 1268 c 0
 444 1186 444 1106 444 1024 c 2
 444 360 l 2
EndSplineSet
Layer: 3
SplineSet
39 94 m 1
 162 94 l 2
 215 94 225 110 227 143 c 0
 231 215 233 288 233 360 c 2
 233 1024 l 2
 233 1106 233 1186 231 1268 c 0
 231 1309 209 1317 170 1317 c 2
 39 1317 l 1
 39 1411 l 1
 639 1411 l 1
 639 1317 l 1
 508 1317 l 2
 457 1317 446 1299 446 1268 c 0
 444 1186 444 1106 444 1024 c 2
 444 360 l 2
 444 264 447 139 455 121 c 0
 467 94 496 94 514 94 c 2
 639 94 l 1
 639 0 l 1
 39 0 l 1
 39 94 l 1
EndSplineSet
EndChar

StartChar: J
Encoding: 74 74 35
Width: 841
Flags: HW
HStem: -365 121<80.5 314.742> 1317 94<203 394.855 610.075 803>
VStem: -84 223<-243.886 -119.69> 397 211<-16.4587 1315.8>
LayerCount: 4
Fore
SplineSet
139 -207 m 0
 139 -234 153 -244 180 -244 c 0
 227 -244 377 -215 387 -68 c 2
 397 94 l 1
 397 1024 l 2
 397 1106 397 1186 395 1268 c 0
 395 1309 373 1317 334 1317 c 2
 203 1317 l 1
 203 1411 l 1
 803 1411 l 1
 803 1317 l 1
 672 1317 l 2
 621 1317 610 1299 610 1268 c 0
 608 1186 608 1106 608 1024 c 2
 608 135 l 1
 590 -86 l 1
 565 -168 512 -221 436 -270 c 1
 358 -319 256 -365 135 -365 c 0
 26 -365 -84 -324 -84 -215 c 0
 -84 -147 -27 -88 47 -88 c 0
 80 -88 147 -107 147 -154 c 0
 147 -170 139 -187 139 -207 c 0
EndSplineSet
Layer: 3
SplineSet
139 -207 m 0
 139 -234 153 -244 180 -244 c 0
 227 -244 377 -215 387 -68 c 2
 397 94 l 1
 397 1024 l 2
 397 1106 397 1186 395 1268 c 0
 395 1309 373 1317 334 1317 c 2
 203 1317 l 1
 203 1411 l 1
 803 1411 l 1
 803 1317 l 1
 672 1317 l 2
 621 1317 610 1299 610 1268 c 0
 608 1186 608 1106 608 1024 c 2
 608 135 l 1
 590 -86 l 1
 565 -168 512 -221 436 -270 c 1
 358 -319 256 -365 135 -365 c 0
 26 -365 -84 -324 -84 -215 c 0
 -84 -147 -27 -88 47 -88 c 0
 80 -88 147 -107 147 -154 c 0
 147 -170 139 -187 139 -207 c 0
EndSplineSet
EndChar

StartChar: K
Encoding: 75 75 36
Width: 1521
Flags: HW
HStem: 0 94<39 226.662 453.575 618 809 986.985 1284.01 1483> 1317 94<39 230.855 446.075 639 858 1013.98 1227.81 1413>
VStem: 233 209<121.922 668 807 1315.59>
LayerCount: 4
Fore
SplineSet
446 807 m 1
 967 1227 1014 1256 1014 1292 c 0
 1014 1315 993 1317 981 1317 c 2
 858 1317 l 1
 858 1411 l 1
 1413 1411 l 1
 1413 1317 l 1
 1374 1317 l 2
 1253 1317 1260 1306 668 823 c 1
 1157 272 1218 202 1284 139 c 0
 1317 108 1335 94 1386 94 c 2
 1483 94 l 1
 1483 0 l 1
 809 0 l 1
 809 94 l 1
 956 94 l 2
 966 94 987 96 987 119 c 0
 987 146 905 242 893 256 c 2
 504 715 l 1
 442 668 l 1
 442 360 l 2
 442 112 442 94 512 94 c 2
 618 94 l 1
 618 0 l 1
 39 0 l 1
 39 94 l 1
 162 94 l 2
 215 94 225 110 227 143 c 0
 231 215 233 288 233 360 c 2
 233 1024 l 2
 233 1106 233 1186 231 1268 c 0
 231 1309 209 1317 170 1317 c 2
 39 1317 l 1
 39 1411 l 1
 639 1411 l 1
 639 1317 l 1
 508 1317 l 2
 457 1317 446 1299 446 1268 c 0
 444 1186 444 1106 444 1024 c 2
 444 807 l 1
 446 807 l 1
EndSplineSet
Layer: 3
SplineSet
956 94 m 2
 966 94 987 96 987 119 c 0
 987 146 904.921573341 241.933156392 893 256 c 2
 504 715 l 1
 442 668 l 1
 442 360 l 2
 442 264 445 139 453 121 c 0
 465 94 494 94 512 94 c 2
 618 94 l 1
 618 0 l 1
 39 0 l 1
 39 94 l 1
 162 94 l 2
 215 94 225 110 227 143 c 0
 231 215 233 288 233 360 c 2
 233 1024 l 2
 233 1106 233 1186 231 1268 c 0
 231 1309 209 1317 170 1317 c 2
 39 1317 l 1
 39 1411 l 1
 639 1411 l 1
 639 1317 l 1
 508 1317 l 2
 457 1317 446 1299 446 1268 c 0
 444 1186 444 1106 444 1024 c 2
 444 807 l 1
 446 807 l 1
 952 1215 950 1210 989 1251 c 0
 993 1255 1014 1274 1014 1292 c 0
 1014 1315 993 1317 981 1317 c 2
 858 1317 l 1
 858 1411 l 1
 1413 1411 l 1
 1413 1317 l 1
 1374 1317 l 2
 1253 1317 1260 1306 668 823 c 1
 1157 272 1218 202 1284 139 c 0
 1317 108 1335 94 1386 94 c 2
 1483 94 l 1
 1483 0 l 1
 809 0 l 1
 809 94 l 1
 956 94 l 2
EndSplineSet
EndChar

StartChar: L
Encoding: 76 76 37
Width: 1179
Flags: HW
HStem: 0 123<444 964.906> 0 94<39 222.932> 1317 94<43 222.528 446.051 635>
VStem: 233 211<123.206 1302.33> 1026 86<180.367 346>
LayerCount: 4
Fore
SplineSet
502 123 m 2
 1014 123 1005 135 1026 346 c 1
 1112 346 l 1
 1112 14 l 2
 1112 2 1110 -4 1096 -4 c 0xb8
 1022 -4 946 0 352 0 c 2
 39 0 l 1
 39 94 l 1
 168 94 l 2x78
 224 94 233 116 233 360 c 0
 233 629 233 898 233 1167 c 0
 233 1299 229 1317 193 1317 c 2
 43 1317 l 1
 43 1411 l 1
 635 1411 l 1
 635 1317 l 1
 483 1317 l 2
 448 1317 446 1297 446 1266 c 0
 444 1186 444 1104 444 1024 c 2
 444 156 l 2
 444 125 452 123 487 123 c 2
 502 123 l 2
EndSplineSet
Layer: 3
SplineSet
1096 -4 m 0xb8
 1022 -4 946 0 352 0 c 2
 39 0 l 1
 39 94 l 1
 168 94 l 2x78
 219 94 223 123 227 174 c 0
 231 235 233 299 233 360 c 2
 233 1024 l 2
 233 1251 233 1289 223 1303 c 1
 213 1315 199 1317 193 1317 c 2
 43 1317 l 1
 43 1411 l 1
 635 1411 l 1
 635 1317 l 1
 483 1317 l 2
 448 1317 446 1297 446 1266 c 0
 444 1186 444 1104 444 1024 c 2
 444 156 l 2
 444 125 452 123 487 123 c 2
 502 123 l 2
 922 123 954 147 985 182 c 0
 1014 215 1018 266 1026 346 c 1
 1112 346 l 1
 1112 14 l 2
 1112 2 1110 -4 1096 -4 c 0xb8
EndSplineSet
EndChar

StartChar: M
Encoding: 77 77 38
Width: 1781
Flags: HW
HStem: 0 94<39 226.676 346.749 535 1143 1330.31 1555.31 1743> 1317 94<39 233 1548.01 1743>
VStem: 233 107<95.2813 1247> 1337 211<95.8181 1180>
LayerCount: 4
Fore
SplineSet
1272 94 m 2
 1337 94 1337 107 1337 360 c 2
 1337 1169 l 2
 1337 1177 1333 1180 1331 1180 c 0
 1325 1180 1323 1173 1321 1169 c 0
 866 12 866 10 856 -2 c 0
 850 -8 839 -14 829 -14 c 0
 804 -14 794 7 788 25 c 0
 357 1244 362 1247 350 1247 c 0
 342 1247 340 1241 340 1233 c 2
 340 316 l 2
 340 125 342 94 393 94 c 2
 535 94 l 1
 535 0 l 1
 39 0 l 1
 39 94 l 1
 172 94 l 2
 217 94 225 112 227 143 c 0
 231 215 233 288 233 360 c 2
 233 1274 l 2
 233 1294 232 1317 197 1317 c 2
 39 1317 l 1
 39 1411 l 1
 489 1411 l 2
 499 1411 508 1411 518 1384 c 2
 887 387 l 1
 895 387 l 1
 1290 1372 1300 1397 1300 1399 c 1
 1308 1411 1321 1411 1329 1411 c 2
 1743 1411 l 1
 1743 1317 l 1
 1589 1317 l 2
 1550 1317 1548 1293 1548 1270 c 2
 1548 293 l 2
 1548 113 1553 94 1616 94 c 2
 1743 94 l 1
 1743 0 l 1
 1143 0 l 1
 1143 94 l 1
 1272 94 l 2
EndSplineSet
Layer: 3
SplineSet
1272 94 m 2
 1337 94 1337 107 1337 360 c 2
 1337 1169 l 2
 1337 1177 1333 1180 1331 1180 c 0
 1325 1180 1323 1173 1321 1169 c 0
 866 12 866 10 856 -2 c 0
 850 -8 839 -14 829 -14 c 0
 804 -14 794 7 788 25 c 0
 357 1244 362 1247 350 1247 c 0
 342 1247 340 1241 340 1233 c 0
 340 927.333333333 340 621.666666667 340 316 c 0
 340 125 342 94 393 94 c 2
 535 94 l 1
 535 0 l 1
 39 0 l 1
 39 94 l 1
 172 94 l 2
 217 94 225 112 227 143 c 0
 231 215 233 288 233 360 c 2
 233 1274 l 2
 233 1294 232 1317 197 1317 c 2
 39 1317 l 1
 39 1411 l 1
 489 1411 l 2
 499 1411 508 1411 518 1384 c 2
 887 387 l 1
 895 387 l 1
 1290 1372 1300 1397 1300 1399 c 1
 1308 1411 1321 1411 1329 1411 c 2
 1743 1411 l 1
 1743 1317 l 1
 1589 1317 l 2
 1550 1317 1548 1293 1548 1270 c 2
 1548 293 l 2
 1548 113 1553 94 1616 94 c 2
 1743 94 l 1
 1743 0 l 1
 1143 0 l 1
 1143 94 l 1
 1272 94 l 2
EndSplineSet
EndChar

StartChar: N
Encoding: 78 78 39
Width: 1574
Flags: HW
HStem: 0 94<39 226.676 346.983 535> 1317 94<39 228.375 1040 1227.85 1348.76 1536>
VStem: 233 107<95.054 1155> 1235 106<422.636 1314.57>
LayerCount: 4
Fore
SplineSet
340 1155 m 2
 340 319 l 2
 340 116 342 94 401 94 c 2
 535 94 l 1
 535 0 l 1
 39 0 l 1
 39 94 l 1
 172 94 l 2
 217 94 225 112 227 143 c 0
 231 215 233 288 233 360 c 2
 233 1253 l 2
 233 1271 230 1271 205 1300 c 0
 191 1316 178 1317 139 1317 c 2
 39 1317 l 1
 39 1411 l 1
 381 1411 l 2
 418 1411 422 1407 434 1393 c 0
 1218 414 1221 412 1225 412 c 0
 1229 412 1235 414 1235 426 c 2
 1235 1085 l 2
 1235 1300 1232 1317 1169 1317 c 2
 1040 1317 l 1
 1040 1411 l 1
 1536 1411 l 1
 1536 1317 l 1
 1411 1317 l 2
 1386 1317 1352 1315 1348 1266 c 1
 1344 1192 1341 1118 1341 1044 c 2
 1341 807 l 2
 1341 225 1358 39 1358 14 c 0
 1358 -15 1343 -20 1323 -20 c 2
 1307 -20 l 2
 1272 -20 1263 -2 1247 18 c 0
 350 1166 369 1144 348 1165 c 1
 344 1165 340 1163 340 1155 c 2
EndSplineSet
Layer: 3
SplineSet
340 1155 m 2
 340 319 l 2
 340 116 342 94 401 94 c 2
 535 94 l 1
 535 0 l 1
 39 0 l 1
 39 94 l 1
 172 94 l 2
 217 94 225 112 227 143 c 0
 231 215 233 288 233 360 c 2
 233 1253 l 2
 233 1271 230 1271 205 1300 c 0
 191 1316 178 1317 139 1317 c 2
 39 1317 l 1
 39 1411 l 1
 381 1411 l 2
 418 1411 422 1407 434 1393 c 0
 1218 414 1221 412 1225 412 c 0
 1229 412 1235 414 1235 426 c 2
 1235 1085 l 2
 1235 1300 1232 1317 1169 1317 c 2
 1040 1317 l 1
 1040 1411 l 1
 1536 1411 l 1
 1536 1317 l 1
 1411 1317 l 2
 1386 1317 1352 1315 1348 1266 c 1
 1344 1192 1341 1118 1341 1044 c 2
 1341 807 l 2
 1341 225 1358 39 1358 14 c 0
 1358 -15 1343 -20 1323 -20 c 2
 1307 -20 l 2
 1272 -20 1263 -2 1247 18 c 0
 360 1153 354 1161 352 1163 c 0
 350 1165 348 1165 348 1165 c 1
 344 1165 340 1163 340 1155 c 2
EndSplineSet
EndChar

StartChar: O
Encoding: 79 79 40
Width: 1742
Flags: HW
HStem: -45 129<739.421 1110.59> 1317 129<662.087 1033>
VStem: 109 241<504.24 913.723> 1391 243<471.262 908.876>
LayerCount: 4
Fore
SplineSet
109 674 m 2
 109 1080 440 1446 911 1446 c 0
 1362 1446 1632 1085 1634 725 c 1
 1634 721 l 2
 1634 332 1310 -45 872 -45 c 0
 520 -45 109 195 109 672 c 2
 109 674 l 2
350 735 m 0
 350 346 662 84 934 84 c 0
 1249 84 1391 412 1391 670 c 0
 1391 1041 1120 1317 844 1317 c 2
 840 1317 l 1
 588 1315 350 1077 350 735 c 0
EndSplineSet
Layer: 3
SplineSet
109 674 m 2
 109 1080 440 1446 911 1446 c 0
 1362 1446 1632 1085 1634 725 c 1
 1634 721 l 2
 1634 332 1310 -45 872 -45 c 0
 520 -45 109 195 109 672 c 2
 109 674 l 2
350 735 m 0
 350 346 662 84 934 84 c 0
 1249 84 1391 412 1391 670 c 0
 1391 1041 1120 1317 844 1317 c 2
 840 1317 l 1
 588 1315 350 1077 350 735 c 0
EndSplineSet
EndChar

StartChar: P
Encoding: 80 80 41
Width: 1216
Flags: HW
HStem: 0 94<39 226.663 447.5 635> 582 108<467.85 766.13> 1317 94<39 228.605 445.834 782.687>
VStem: 233 211<95.7594 637 711.326 1285.29> 922 204<843.08 1183.16>
LayerCount: 4
Fore
SplineSet
233 1110 m 2
 233 1149 234 1182 234 1209 c 0
 234 1288 228 1317 184 1317 c 2
 39 1317 l 1
 39 1411 l 1
 352 1411 l 2
 442 1411 533 1417 623 1417 c 2
 627 1417 l 2
 873 1417 1011 1351 1085 1204 c 0
 1110 1155 1126 1096 1126 1024 c 0
 1126 784 926 582 672 582 c 0
 594 582 514 600 444 639 c 1
 440 637 l 1
 440 360 l 2
 440 114 440 94 506 94 c 2
 635 94 l 1
 635 0 l 1
 39 0 l 1
 39 94 l 1
 164 94 l 2
 215 94 225 110 227 143 c 0
 231 215 233 288 233 360 c 2
 233 1110 l 2
610 690 m 0
 788 690 922 828 922 1012 c 0
 922 1162 838 1274 711 1307 c 0
 672 1317 629 1317 588 1317 c 2
 522 1317 l 2
 485 1317 444 1312 444 1253 c 2
 444 731 l 1
 495 704 553 690 610 690 c 0
EndSplineSet
Layer: 3
SplineSet
1126 1024 m 0
 1126 784 926 582 672 582 c 0
 594 582 514 600 444 639 c 1
 440 637 l 1
 440 360 l 2
 440 114 440 94 506 94 c 2
 635 94 l 1
 635 0 l 1
 39 0 l 1
 39 94 l 1
 164 94 l 2
 215 94 225 110 227 143 c 0
 231 215 233 288 233 360 c 2
 233 1110 l 2
 233 1182 232.935992329 1271.98202781 229 1286 c 0
 220.867752222 1314.96286722 194 1317 184 1317 c 2
 39 1317 l 1
 39 1411 l 1
 352 1411 l 2
 442 1411 533 1417 623 1417 c 2
 627 1417 l 2
 873 1417 1010.60272386 1350.79866123 1085 1204 c 0
 1109.86721087 1154.93270273 1126 1096 1126 1024 c 0
610 690 m 0
 788 690 922 828 922 1012 c 0
 922 1162 838 1274 711 1307 c 0
 672 1317 629 1317 588 1317 c 2
 522 1317 l 2
 485 1317 444 1312 444 1253 c 2
 444 731 l 1
 495 704 553 690 610 690 c 0
EndSplineSet
EndChar

StartChar: Q
Encoding: 81 81 42
Width: 1742
Flags: HW
HStem: -371 84<1527.73 1668.98> -41 125<740.69 1031.19> 1317 129<659.859 1031.53>
VStem: 109 241<495.364 921.531> 1391 243<467.435 911.469>
LayerCount: 4
Fore
SplineSet
350 735 m 0
 350 346 662 84 934 84 c 0
 1249 84 1391 412 1391 670 c 0
 1391 1041 1120 1317 844 1317 c 2
 840 1317 l 1
 588 1315 350 1077 350 735 c 0
862 -45 m 0
 554 -45 109 174 109 672 c 0
 109 1073 434 1446 911 1446 c 2
 913 1446 l 2
 1349 1446 1634 1098 1634 719 c 0
 1634 377 1407 115 1133 33 c 1
 1133 27 l 1
 1366 -82 1446 -269 1624 -287 c 0
 1644 -289 1669 -295 1669 -328 c 0
 1669 -379 1578 -389 1526 -389 c 0
 1333 -389 1224 -240 1036 -84 c 0
 1005 -59 979 -41 942 -41 c 0
 926 -41 901 -45 862 -45 c 0
EndSplineSet
Layer: 3
SplineSet
350 735 m 0
 350 346 662 84 934 84 c 0
 1249 84 1391 412 1391 670 c 0
 1391 1041 1120 1317 844 1317 c 2
 840 1317 l 1
 588 1315 350 1077 350 735 c 0
913 1446 m 2
 1349 1446 1634 1098 1634 719 c 0
 1634 377 1407 115 1133 33 c 1
 1133 27 l 1
 1366 -82 1446 -269 1624 -287 c 0
 1643.99776293 -289.02224569 1669 -295 1669 -328 c 0
 1669 -353 1651.9740312 -364.923189304 1634 -371 c 0
 1598.94935899 -382.850213671 1563 -389 1526 -389 c 0
 1333 -389 1224 -240 1036 -84 c 0
 1005 -59 979 -41 942 -41 c 0
 926 -41 901 -45 862 -45 c 0
 665 -45 341 52 188 342 c 0
 135 443 109 557 109 672 c 0
 109 1073 434 1446 911 1446 c 2
 913 1446 l 2
EndSplineSet
EndChar

StartChar: R
Encoding: 82 82 43
Width: 1425
Flags: HW
HStem: 0 94<39 226.662 447.558 635 1231 1386> 1317 94<39 228.772 445.756 780.562>
VStem: 233 211<95.9888 694 777.192 1314.3> 913 234<908.689 1187.21>
LayerCount: 4
Fore
SplineSet
1147 1061 m 2
 1147 862 948 754 848 711 c 1
 848 705 l 1
 991 558 1036 455 1231 127 c 0
 1246 103 1257 94 1296 94 c 2
 1386 94 l 1
 1386 0 l 1
 1165 0 l 2
 1083 0 1050 20 1001 94 c 0
 837 340 819 477 672 633 c 0
 600 709 639 659 444 698 c 1
 440 694 l 1
 440 324 l 2
 440 105 442 94 514 94 c 2
 635 94 l 1
 635 0 l 1
 39 0 l 1
 39 94 l 1
 162 94 l 2
 215 94 225 110 227 143 c 0
 231 215 233 288 233 360 c 2
 233 1171 l 2
 233 1302 227 1317 174 1317 c 2
 39 1317 l 1
 39 1411 l 1
 342 1411 l 2
 453 1411 565 1417 676 1417 c 0
 821 1417 944 1401 1042 1307 c 0
 1108 1244 1147 1153 1147 1063 c 2
 1147 1061 l 2
913 1042 m 0
 913 1133 859 1317 594 1317 c 2
 524 1317 l 2
 483 1317 444 1312 444 1253 c 2
 444 815 l 2
 444 792 447 783 535 768 c 0
 560 764 585 762 612 762 c 0
 805 762 913 901 913 1042 c 0
EndSplineSet
Layer: 3
SplineSet
1147 1061 m 2
 1147 862 948 754 848 711 c 1
 848 705 l 1
 991 558 1036 455 1231 127 c 0
 1246 103 1257 94 1296 94 c 2
 1386 94 l 1
 1386 0 l 1
 1165 0 l 2
 1083 0 1050.11550481 20.0767427889 1001 94 c 0
 837.384773511 340.255648167 819 477 672 633 c 0
 600 709 639 659 444 698 c 1
 440 694 l 1
 440 324 l 2
 440 105 442 94 514 94 c 2
 635 94 l 1
 635 0 l 1
 39 0 l 1
 39 94 l 1
 162 94 l 2
 215 94 225 110 227 143 c 0
 231 215 233 288 233 360 c 2
 233 1171 l 2
 233 1302 227 1317 174 1317 c 2
 39 1317 l 1
 39 1411 l 1
 342 1411 l 2
 453 1411 565 1417 676 1417 c 0
 821 1417 943.886342517 1400.88121851 1042 1307 c 0
 1107.9236323 1243.92018942 1147 1153 1147 1063 c 2
 1147 1061 l 2
913 1042 m 0
 913 1159 839 1255 741 1294 c 0
 694 1312 643 1317 594 1317 c 2
 524 1317 l 2
 483 1317 444 1312 444 1253 c 2
 444 815 l 2
 444 792 447 783 535 768 c 0
 560 764 585 762 612 762 c 0
 805 762 913 901 913 1042 c 0
EndSplineSet
EndChar

StartChar: S
Encoding: 83 83 44
Width: 1062
Flags: HW
HStem: -45 143<359.499 697.104> 983 21G<793 897> 1303 143<344.179 652.304>
VStem: 68 188<974.875 1200.4> 82 104<236.41 442> 801 96<983 1146.91> 807 188<230.143 466.302>
LayerCount: 4
Fore
SplineSet
545 98 m 0xea
 721 98 807 225 807 334 c 0xea
 807 397 778 459 731 502 c 0
 649 578 555 580 367 664 c 0
 261 711 68 809 68 1036 c 0
 68 1290 340 1446 547 1446 c 0
 682 1446 809 1382 897 1319 c 1
 897 983 l 1
 801 983 l 1
 785 1253 593 1303 487 1303 c 2
 485 1303 l 2
 329 1303 256 1194 256 1090 c 0xf4
 256 996 321 952 356 932 c 0
 579 804 995 764 995 410 c 0
 995 174 776 -45 473 -45 c 0
 240 -45 102 91 82 111 c 1
 82 442 l 1
 186 444 l 1
 196 301 202 244 274 193 c 1
 329 152 430 98 545 98 c 0xea
EndSplineSet
Layer: 3
SplineSet
545 98 m 0xea
 721 98 807 225 807 334 c 0xea
 807 397 777.860647251 458.848668401 731 502 c 0
 648.755423613 577.734399673 555 580 367 664 c 0
 261.134287625 711.301701274 68 809 68 1036 c 0
 68 1290 340 1446 547 1446 c 0
 682 1446 809 1382 897 1319 c 1
 897 983 l 1
 801 983 l 1
 785 1253 593 1303 487 1303 c 2
 485 1303 l 2
 329 1303 256 1194 256 1090 c 0xf4
 256 996 321.055845874 952.097415067 356 932 c 0
 549 821 829 789 946 592 c 0
 975 545 995 484 995 410 c 0
 995 174 776 -45 473 -45 c 0
 240 -45 102 91 82 111 c 1
 82 442 l 1
 186 444 l 1
 196 301 202 244 274 193 c 1
 329 152 430 98 545 98 c 0xea
EndSplineSet
EndChar

StartChar: T
Encoding: 84 84 45
Width: 1376
Flags: HW
HStem: 2 92<346 570.999 794.798 1020> 1077 346<66 158.612 1220.91 1311> 1278 129<222.092 572.711 790.907 1156.99>
VStem: 66 94<1077 1263.58> 578 210<95.1543 1278> 1217 94<1077 1263.89>
LayerCount: 4
Fore
SplineSet
578 360 m 2
 578 1095 l 2
 578 1261 576 1278 541 1278 c 2
 420 1278 l 2xbc
 303 1278 198 1267 182 1257 c 1
 159 1245 162 1231 160 1077 c 1
 66 1077 l 1
 66 1401 l 2
 66 1415 70 1423 82 1423 c 0xdc
 102 1423 362 1407 684 1407 c 2
 692 1407 l 2xbc
 1016 1407 1278 1423 1298 1423 c 0xdc
 1308 1423 1311 1417 1311 1407 c 2xbc
 1311 1077 l 1
 1217 1077 l 1xdc
 1217 1116 l 2
 1217 1118 1176 1264 1176 1264 c 1
 1100 1276 1022 1278 946 1278 c 2
 829 1278 l 2
 798 1278 791 1266 791 1237 c 0
 789 1169 788 1104 788 1036 c 2
 788 360 l 2
 788 102 788 94 854 94 c 2
 1020 94 l 1
 1020 2 l 1
 346 2 l 1
 346 94 l 1
 514 94 l 2
 537 94 567 96 571 139 c 1
 575 213 578 286 578 360 c 2
EndSplineSet
Layer: 3
SplineSet
1298 1423 m 0xdc
 1308 1423 1311 1417 1311 1407 c 2xbc
 1311 1077 l 1
 1217 1077 l 1xdc
 1217 1116 l 2
 1217 1118 1176 1264 1176 1264 c 1
 1100 1276 1022 1278 946 1278 c 2
 829 1278 l 2
 798 1278 791 1266 791 1237 c 0
 789 1169 788 1104 788 1036 c 2
 788 360 l 2
 788 102 788 94 854 94 c 2
 1020 94 l 1
 1020 2 l 1
 346 2 l 1
 346 94 l 1
 514 94 l 2
 537 94 567 96 571 139 c 1
 575 213 578 286 578 360 c 2
 578 1036 l 2
 578 1044 577 1243 573 1255 c 0
 567 1275 551 1278 541 1278 c 2
 420 1278 l 2xbc
 303 1278 198 1267 182 1257 c 1
 159 1245 162 1231 160 1077 c 1
 66 1077 l 1
 66 1401 l 2
 66 1415 70 1423 82 1423 c 0xdc
 102 1423 362 1407 684 1407 c 2
 692 1407 l 2xbc
 1016 1407 1278 1423 1298 1423 c 0xdc
EndSplineSet
EndChar

StartChar: U
Encoding: 85 85 46
Width: 1566
Flags: HW
HStem: -45 143<630.446 1046.95> 1317 94<39 230.107 446.033 639 1016 1202.82 1339.63 1528>
VStem: 233 211<381 1316.8> 1210 123<249.426 1315.08>
LayerCount: 4
Fore
SplineSet
233 1024 m 2
 233 1093 234 1147 234 1187 c 0
 234 1309 228 1317 182 1317 c 2
 39 1317 l 1
 39 1411 l 1
 639 1411 l 1
 639 1317 l 1
 496 1317 l 2
 457 1317 446 1301 446 1270 c 0
 444 1188 444 1106 444 1024 c 2
 444 555 l 1
 455 381 l 1
 492 174 659 98 854 98 c 0
 1202 98 1210 350 1210 483 c 2
 1210 1083 l 2
 1210 1305 1207 1317 1141 1317 c 2
 1016 1317 l 1
 1016 1411 l 1
 1528 1411 l 1
 1528 1317 l 1
 1403 1317 l 2
 1364 1317 1341 1309 1339 1266 c 0
 1335 1186 1333 1104 1333 1024 c 2
 1333 518 l 2
 1333 360 1330 109 1047 -2 c 1
 971 -33 891 -45 807 -45 c 0
 653 -45 430 6 319 170 c 0
 272 240 242 322 240 406 c 2
 233 655 l 1
 233 1024 l 2
EndSplineSet
Layer: 3
SplineSet
39 1411 m 1
 639 1411 l 1
 639 1317 l 1
 496 1317 l 2
 457 1317 446 1301 446 1270 c 0
 444 1188 444 1106 444 1024 c 2
 444 555 l 1
 455 381 l 1
 492 174 659 98 854 98 c 0
 1202 98 1210 350 1210 483 c 2
 1210 1024 l 2
 1210 1294 1202 1297 1186 1307 c 1
 1176 1315 1164 1317 1141 1317 c 2
 1016 1317 l 1
 1016 1411 l 1
 1528 1411 l 1
 1528 1317 l 1
 1403 1317 l 2
 1364 1317 1341.07481948 1308.99638954 1339 1266 c 0
 1335.13922241 1185.99328173 1333 1104 1333 1024 c 2
 1333 518 l 2
 1333 360 1330 109 1047 -2 c 1
 971 -33 891 -45 807 -45 c 0
 653 -45 430 6 319 170 c 0
 272 240 242.361182184 322.009376603 240 406 c 2
 233 655 l 1
 233 1024 l 2
 233 1307 231 1297 219 1307 c 0
 209 1315 196 1317 182 1317 c 2
 39 1317 l 1
 39 1411 l 1
EndSplineSet
EndChar

StartChar: V
Encoding: 86 86 47
Width: 1554
Flags: HW
HStem: -45 21G<757 768> 1317 94<39 211.586 446.017 606 1024 1183.99 1326.57 1516>
LayerCount: 4
Fore
SplineSet
1184 1284 m 0
 1184 1311 1165 1317 1145 1317 c 2
 1024 1317 l 1
 1024 1411 l 1
 1516 1411 l 1
 1516 1317 l 1
 1413 1317 l 2
 1366 1317 1351 1308 1337 1292 c 0
 1282 1233 804 -6 786 -35 c 1
 778 -43 770 -45 766 -45 c 0
 748 -45 741 -24 735 -10 c 0
 282 1116 232 1255 197 1296 c 1
 181 1312 166 1317 135 1317 c 2
 39 1317 l 1
 39 1411 l 1
 606 1411 l 1
 606 1317 l 1
 485 1317 l 2
 469 1317 446 1315 446 1292 c 0
 446 1278 469 1206 489 1153 c 2
 803 334 l 1
 811 334 l 1
 969 725 1184 1247 1184 1284 c 0
EndSplineSet
Layer: 3
SplineSet
1184 1284 m 0
 1184 1311 1165 1317 1145 1317 c 2
 1024 1317 l 1
 1024 1411 l 1
 1516 1411 l 1
 1516 1317 l 1
 1413 1317 l 2
 1366 1317 1351 1308 1337 1292 c 0
 1282 1233 804 -6 786 -35 c 1
 778 -43 770 -45 766 -45 c 0
 748 -45 741 -24 735 -10 c 0
 282 1116 232 1255 197 1296 c 1
 181 1312 166 1317 135 1317 c 2
 39 1317 l 1
 39 1411 l 1
 606 1411 l 1
 606 1317 l 1
 485 1317 l 2
 469 1317 446 1315 446 1292 c 0
 446 1278 469 1206 489 1153 c 2
 803 334 l 1
 811 334 l 1
 969 725 1184 1247 1184 1284 c 0
EndSplineSet
EndChar

StartChar: W
Encoding: 87 87 48
Width: 2138
Flags: HW
HStem: -45 21G<662.5 678 1463 1484.5> 1317 94<39 211.136 436.014 618 856 1000.53 1220.31 1380 1630 1789.99 1928.89 2099>
VStem: 1032 187<1142.98 1297.49>
LayerCount: 4
Fore
SplineSet
1092 1028 m 1
 694 -45 702 -45 674 -45 c 0
 651 -45 643 -24 639 -8 c 1
 209 1284 215 1278 199 1298 c 0
 185 1314 162 1317 152 1317 c 2
 39 1317 l 1
 39 1411 l 1
 618 1411 l 1
 618 1317 l 1
 471 1317 l 2
 455 1317 436 1313 436 1290 c 0
 436 1278 453 1214 469 1165 c 2
 725 391 l 1
 733 391 l 1
 1003 1104 1032 1171 1032 1196 c 0
 1032 1216 1007 1288 1001 1298 c 0
 991 1312 975 1317 950 1317 c 2
 856 1317 l 1
 856 1411 l 1
 1380 1411 l 1
 1380 1317 l 1
 1251 1317 l 2
 1233 1317 1219 1311 1219 1288 c 2
 1219 1286 l 2
 1219 1263 1222 1255 1513 391 c 1
 1518 391 l 1
 1688 934 1790 1245 1790 1284 c 0
 1790 1311 1773 1317 1753 1317 c 2
 1630 1317 l 1
 1630 1411 l 1
 2099 1411 l 1
 2099 1317 l 1
 1997 1317 l 2
 1960 1317 1943 1311 1931 1278 c 0
 1886 1151 1845 1020 1507 -10 c 1
 1503 -26 1496 -45 1473 -45 c 0
 1453 -45 1444 -26 1438 -8 c 2
 1098 1028 l 1
 1092 1028 l 1
EndSplineSet
Layer: 3
SplineSet
1790 1284 m 0
 1790 1311 1773 1317 1753 1317 c 2
 1630 1317 l 1
 1630 1411 l 1
 2099 1411 l 1
 2099 1317 l 1
 1997 1317 l 2
 1960 1317 1943 1311 1931 1278 c 0
 1886 1151 1845 1020 1507 -10 c 1
 1503 -26 1496 -45 1473 -45 c 0
 1453 -45 1444 -26 1438 -8 c 2
 1098 1028 l 1
 1092 1028 l 1
 703 -21 700 -27 692 -35 c 1
 688 -41 682 -45 674 -45 c 0
 651 -45 643 -24 639 -8 c 1
 209 1284 215 1278 199 1298 c 0
 185 1314 162 1317 152 1317 c 2
 39 1317 l 1
 39 1411 l 1
 618 1411 l 1
 618 1317 l 1
 471 1317 l 2
 455 1317 436 1313 436 1290 c 0
 436 1278 453 1214 469 1165 c 2
 725 391 l 1
 733 391 l 1
 1003 1104 1032 1171 1032 1196 c 0
 1032 1216 1007 1288 1001 1298 c 0
 991 1312 975 1317 950 1317 c 2
 856 1317 l 1
 856 1411 l 1
 1380 1411 l 1
 1380 1317 l 1
 1251 1317 l 2
 1233 1317 1219 1311 1219 1288 c 2
 1219 1286 l 2
 1219 1263 1222 1255 1513 391 c 1
 1518 391 l 1
 1688 934 1790 1245 1790 1284 c 0
EndSplineSet
EndChar

StartChar: X
Encoding: 88 88 49
Width: 1546
Flags: HW
HStem: 0 94<39 242.586 389.017 569 913 1090.89 1395 1507> 1317 94<115 301.216 547.021 721 983 1109.99 1265.37 1507>
LayerCount: 4
Fore
SplineSet
688 727 m 1
 278 1317 295 1317 197 1317 c 2
 115 1317 l 1
 115 1411 l 1
 721 1411 l 1
 721 1317 l 1
 588 1317 l 2
 576 1317 547 1317 547 1292 c 0
 547 1282 571 1239 614 1176 c 2
 815 883 l 1
 819 883 l 1
 1100 1250 1110 1266 1110 1286 c 0
 1110 1311 1090 1317 1067 1317 c 2
 983 1317 l 1
 983 1411 l 1
 1507 1411 l 1
 1507 1317 l 1
 1371 1317 l 2
 1276 1317 1296 1315 885 788 c 1
 885 784 l 1
 1352 104 1350 106 1395 96 c 1
 1458 92 l 1
 1507 92 l 1
 1507 0 l 1
 913 0 l 1
 913 94 l 1
 1053 94 l 2
 1078 94 1096 101 1096 121 c 2
 1096 123 l 2
 1096 135 1090 146 758 627 c 1
 754 627 l 1
 410 168 389 137 389 117 c 0
 389 94 412 94 424 94 c 2
 569 94 l 1
 569 0 l 1
 39 0 l 1
 39 94 l 1
 83 94 127 94 171 94 c 0
 224 94 231 118 688 719 c 1
 688 727 l 1
EndSplineSet
Layer: 3
SplineSet
1067 1317 m 2
 983 1317 l 1
 983 1411 l 1
 1507 1411 l 1
 1507 1317 l 1
 1374 1317 l 2
 1311 1317 1289 1299 1260 1266 c 0
 1219 1221 1184 1171 885 788 c 1
 885 784 l 1
 1352 104 1350 106 1395 96 c 1
 1458 92 l 1
 1507 92 l 1
 1507 0 l 1
 913 0 l 1
 913 94 l 1
 1053 94 l 2
 1078 94 1096 101 1096 121 c 2
 1096 123 l 2
 1096 135 1090 146 758 627 c 1
 754 627 l 1
 410 168 389 137 389 117 c 0
 389 94 412 94 424 94 c 2
 569 94 l 1
 569 0 l 1
 39 0 l 1
 39 94 l 1
 156 94 l 2
 201 94 218 110 238 133 c 0
 287 188 330 248 688 719 c 1
 688 727 l 1
 315 1264 331 1239 311 1262 c 0
 268 1311 242 1317 197 1317 c 2
 115 1317 l 1
 115 1411 l 1
 721 1411 l 1
 721 1317 l 1
 588 1317 l 2
 576 1317 547 1317 547 1292 c 0
 547 1282 571 1239 614 1176 c 2
 815 883 l 1
 819 883 l 1
 1100 1250 1110 1266 1110 1286 c 0
 1110 1311 1090 1317 1067 1317 c 2
EndSplineSet
EndChar

StartChar: Y
Encoding: 89 89 50
Width: 1550
Flags: HW
HStem: 0 94<430 654.999 878.798 1104> 1317 94<39 223.704 473.011 616 989 1166.99 1328.32 1511>
VStem: 662 210<94.8477 701.99>
LayerCount: 4
Fore
SplineSet
1167 1298 m 0
 1167 1312 1155 1317 1141 1317 c 2
 989 1317 l 1
 989 1411 l 1
 1511 1411 l 1
 1511 1317 l 1
 1407 1317 l 2
 1366 1317 1350 1307 1268 1192 c 1
 903 694 l 1
 887 674 872 657 872 612 c 2
 872 360 l 2
 872 102 872 94 938 94 c 2
 1104 94 l 1
 1104 0 l 1
 430 0 l 1
 430 94 l 1
 602 94 l 2
 622 94 651 96 655 139 c 1
 659 213 662 286 662 360 c 2
 662 621 l 2
 662 654 658 667 633 702 c 0
 194 1317 217 1317 135 1317 c 2
 39 1317 l 1
 39 1411 l 1
 616 1411 l 1
 616 1317 l 1
 502 1317 l 2
 488 1317 473 1312 473 1298 c 0
 473 1284 481 1274 813 791 c 1
 819 791 l 1
 1046 1113 1167 1278 1167 1298 c 0
EndSplineSet
Layer: 3
SplineSet
1167 1298 m 0
 1167 1312 1155 1317 1141 1317 c 2
 989 1317 l 1
 989 1411 l 1
 1511 1411 l 1
 1511 1317 l 1
 1407 1317 l 2
 1366 1317 1350 1307 1268 1192 c 1
 903 694 l 1
 887 674 872 657 872 612 c 2
 872 360 l 2
 872 102 872 94 938 94 c 2
 1104 94 l 1
 1104 0 l 1
 430 0 l 1
 430 94 l 1
 602 94 l 2
 622 94 651 96 655 139 c 1
 659 213 662 286 662 360 c 2
 662 621 l 2
 662 654 658 667 633 702 c 0
 203 1304 213 1309 162 1315 c 0
 152 1317 143 1317 135 1317 c 2
 39 1317 l 1
 39 1411 l 1
 616 1411 l 1
 616 1317 l 1
 502 1317 l 2
 488 1317 473 1312 473 1298 c 0
 473 1284 481 1274 813 791 c 1
 819 791 l 1
 1046 1113 1167 1278 1167 1298 c 0
EndSplineSet
EndChar

StartChar: Z
Encoding: 90 90 51
Width: 1304
Flags: HW
HStem: 0 133<385.003 1092.27> 1294 117<451.887 903>
VStem: 100 99<1059 1257.41> 1124 82<276.132 383>
LayerCount: 4
Fore
SplineSet
385 143 m 0
 385 137 389 133 393 133 c 0
 456 133 520 135 1020 139 c 0
 1086 140 1096 174 1102 219 c 2
 1124 383 l 1
 1206 383 l 1
 1206 23 l 2
 1206 7 1202 -4 1184 -4 c 0
 1129 -4 963 0 629 0 c 0
 295 0 127 -4 72 -4 c 0
 45 -4 39 10 39 20 c 0
 39 51 70 41 238 291 c 2
 905 1286 l 1
 903 1294 l 1
 250 1269 268 1274 248 1260 c 1
 223 1246 226 1239 199 1059 c 1
 100 1059 l 1
 100 1391 l 2
 100 1405 105 1411 119 1411 c 2
 471 1411 l 2
 1046 1411 1118 1419 1190 1419 c 0
 1227 1419 1235 1403 1235 1391 c 0
 1235 1381 1229 1372 1225 1366 c 0
 477 281 385 147 385 143 c 0
EndSplineSet
Layer: 3
SplineSet
385 143 m 0
 385 137 389 133 393 133 c 0
 456 133 520 135 1020 139 c 0
 1086 140 1095.96405943 174.004806685 1102 219 c 2
 1124 383 l 1
 1206 383 l 1
 1206 23 l 2
 1206 7 1202 -4 1184 -4 c 0
 1129 -4 963 0 629 0 c 0
 295 0 127 -4 72 -4 c 0
 45 -4 39 10 39 20 c 0
 39 51 70 41 238 291 c 2
 905 1286 l 1
 903 1294 l 1
 250 1269 268 1274 248 1260 c 1
 223 1246 226 1239 199 1059 c 1
 100 1059 l 1
 100 1391 l 2
 100 1405 105 1411 119 1411 c 2
 471 1411 l 2
 1046 1411 1118 1419 1190 1419 c 0
 1227 1419 1235 1403 1235 1391 c 0
 1235 1381 1229 1372 1225 1366 c 0
 477 281 385 147 385 143 c 0
EndSplineSet
EndChar

StartChar: zero
Encoding: 48 48 52
Width: 1214
Flags: HW
HStem: -35 94<478.649 782.442> 895 100<436.233 726.189>
VStem: 61 203<295.07 658.19> 948 205<315.13 658.419>
LayerCount: 4
Fore
SplineSet
1153 510 m 0
 1153 252 928 -35 588 -35 c 0
 281 -35 61 197 61 461 c 0
 61 756 324 995 627 995 c 2
 631 995 l 1
 930 993 1153 768 1153 510 c 0
578 895 m 0
 381 895 264 693 264 498 c 0
 264 250 442 59 637 59 c 0
 823 59 948 232 948 449 c 0
 948 725 754 895 578 895 c 0
EndSplineSet
Layer: 3
SplineSet
1153 510 m 0
 1153 252 928 -35 588 -35 c 0
 281 -35 61 197 61 461 c 0
 61 756 324 995 627 995 c 2
 631 995 l 1
 930 993 1153 768 1153 510 c 0
578 895 m 0
 381 895 264 693 264 498 c 0
 264 250 442 59 637 59 c 0
 823 59 948 232 948 449 c 0
 948 725 754 895 578 895 c 0
EndSplineSet
EndChar

StartChar: one
Encoding: 49 49 53
Width: 743
Flags: HW
HStem: 0 82<25 266.461 477.817 719> 870 82<25 263.52 475.292 719>
VStem: 274 195<84.3671 849.032>
LayerCount: 4
Fore
SplineSet
25 82 m 1
 199 82 l 2
 226 82 264 82 268 133 c 1
 272 209 274 284 274 360 c 2
 274 592 l 2
 274 643 272 832 264 850 c 1
 254 868 229 870 213 870 c 2
 25 870 l 1
 25 952 l 1
 719 952 l 1
 719 870 l 1
 532 870 l 2
 512 870 477 870 475 827 c 0
 471 749 469 670 469 592 c 2
 469 293 l 2
 469 103 473 82 541 82 c 2
 719 82 l 1
 719 0 l 1
 25 0 l 1
 25 82 l 1
EndSplineSet
Layer: 3
SplineSet
25 82 m 1
 199 82 l 2
 226 82 264 82 268 133 c 1
 272 209 274 284 274 360 c 2
 274 592 l 2
 274 643 272 832 264 850 c 1
 254 868 229 870 213 870 c 2
 25 870 l 1
 25 952 l 1
 719 952 l 1
 719 870 l 1
 532 870 l 2
 512 870 477.102307565 869.994997512 475 827 c 0
 471.185624354 748.990923607 469 670 469 592 c 2
 469 293 l 2
 469 103 473 82 541 82 c 2
 719 82 l 1
 719 0 l 1
 25 0 l 1
 25 82 l 1
EndSplineSet
EndChar

StartChar: two
Encoding: 50 50 54
Width: 940
Flags: HW
HStem: 0 166<391 806.718> 864 137<324.627 567.266>
VStem: 631 205<567.156 796.102>
LayerCount: 4
Fore
SplineSet
82 645 m 1
 225 963 374 1001 498 1001 c 2
 500 1001 l 2
 684 1001 836 891 836 721 c 2
 836 719 l 2
 836 502 551 280 389 174 c 1
 391 166 l 1
 860 166 l 2
 864 166 868 164 868 160 c 0
 868 154 809 14 807 10 c 0
 801 0 794 0 788 0 c 2
 84 0 l 2
 74 0 66 2 66 12 c 0
 66 22 71 22 231 168 c 0
 459 376 631 512 631 678 c 0
 631 778 557 864 453 864 c 0
 326 864 239 747 147 610 c 1
 82 645 l 1
EndSplineSet
Layer: 3
SplineSet
836 719 m 2
 836 502 551 280 389 174 c 1
 391 166 l 1
 860 166 l 2
 864 166 868 164 868 160 c 0
 868 154 809 14 807 10 c 0
 801 0 794 0 788 0 c 2
 84 0 l 2
 74 0 66 2 66 12 c 0
 66 22 71.4795607583 22.4725817444 231 168 c 0
 459 376 631 512 631 678 c 0
 631 778 557 864 453 864 c 0
 326 864 239 747 147 610 c 1
 82 645 l 1
 105 696 190 878 311 952 c 1
 366 987 432 1001 498 1001 c 2
 500 1001 l 2
 684 1001 836 891 836 721 c 2
 836 719 l 2
EndSplineSet
EndChar

StartChar: three
Encoding: 51 51 55
Width: 833
Flags: HW
HStem: -385 86<-5.00056 135.549> 297 70<134.446 178.949> 856 137<258.102 474.287>
VStem: 506 201<666.426 828.429> 563 209<24.3805 268.946>
LayerCount: 4
Fore
SplineSet
461 993 m 2xf0
 604 993 707 912 707 795 c 0xf0
 707 676 594 578 481 498 c 1
 483 492 l 1
 487 492 l 2
 626 492 772 379 772 195 c 0
 772 -37 525 -292 -2 -385 c 1
 -20 -299 l 1
 254 -244 563 -78 563 145 c 0xe8
 563 256 485 338 358 338 c 0
 315 338 247 328 141 297 c 1
 109 367 l 1
 265 435 506 590 506 737 c 0
 506 788 473 856 371 856 c 0
 267 856 166 793 113 754 c 1
 66 819 l 1
 209 960 375 993 459 993 c 2
 461 993 l 2xf0
EndSplineSet
Layer: 3
SplineSet
461 993 m 2xf0
 604 993 707 912 707 795 c 0xf0
 707 676 594 578 481 498 c 1
 483 492 l 1
 487 492 l 2
 626 492 772 379 772 195 c 0
 772 27 651 -121 471 -223 c 0
 326 -305 162 -356 -2 -385 c 1
 -20 -299 l 1
 254 -244 563 -78 563 145 c 0xe8
 563 256 485 338 358 338 c 0
 315 338 247 328 141 297 c 1
 109 367 l 1
 265 435 506 590 506 737 c 0
 506 788 473 856 371 856 c 0
 267 856 166 793 113 754 c 1
 66 819 l 1
 209 960 375 993 459 993 c 2
 461 993 l 2xf0
EndSplineSet
EndChar

StartChar: four
Encoding: 52 52 56
Width: 1060
Flags: HW
HStem: 0 141<219 629 803 1004>
VStem: 629 174<-403 0 141 662>
LayerCount: 4
Fore
SplineSet
629 141 m 1
 629 662 l 1
 625 664 l 1
 217 145 l 1
 219 141 l 1
 629 141 l 1
788 1008 m 0
 794 1008 803 1005 803 989 c 2
 803 141 l 1
 1004 141 l 1
 1004 0 l 1
 801 0 l 1
 801 -403 l 1
 631 -403 l 1
 631 0 l 1
 23 0 l 2
 13 0 4 2 4 12 c 0
 4 18 8 25 10 27 c 0
 779 1008 774 1008 788 1008 c 0
EndSplineSet
Layer: 3
SplineSet
629 141 m 1
 629 662 l 1
 625 664 l 1
 217 145 l 1
 219 141 l 1
 629 141 l 1
788 1008 m 0
 794 1008 803 1005 803 989 c 2
 803 141 l 1
 1004 141 l 1
 1004 0 l 1
 801 0 l 1
 801 -403 l 1
 631 -403 l 1
 631 0 l 1
 23 0 l 2
 13 0 4 2 4 12 c 0
 4 18 8 25 10 27 c 0
 776 1004 774 1002 780 1006 c 0
 782 1008 784 1008 788 1008 c 0
EndSplineSet
EndChar

StartChar: five
Encoding: 53 53 57
Width: 778
Flags: HW
HStem: -418 84<3.26933 132.331> 422 180<212.736 418.824> 778 174<276 699.615>
VStem: 524 189<27.9885 312.307>
LayerCount: 4
Fore
SplineSet
-10 -334 m 1
 247 -292 524 -95 524 168 c 0
 524 313 428 422 266 422 c 0
 153 422 39 375 33 375 c 0
 25 375 20 381 20 391 c 0
 20 403 31 422 41 453 c 1
 223 951 219 952 233 952 c 2
 729 952 l 2
 739 952 748 950 748 942 c 0
 748 928 719 874 686 788 c 0
 682 780 678 778 670 778 c 2
 276 778 l 1
 209 594 l 1
 211 590 l 1
 248 598 287 602 326 602 c 2
 328 602 l 2
 557 602 713 454 713 233 c 2
 713 231 l 2
 713 -99 401 -340 6 -418 c 1
 -10 -334 l 1
EndSplineSet
Layer: 3
SplineSet
328 602 m 2
 557 602 713 454 713 233 c 2
 713 231 l 2
 713 -99 401 -340 6 -418 c 1
 -10 -334 l 1
 178 -303 346 -192 424 -96 c 1
 475 -35 524 64 524 168 c 0
 524 313 428 422 266 422 c 0
 153 422 39 375 33 375 c 0
 25 375 20 381 20 391 c 0
 20 403 31 422 41 453 c 1
 223 951 219 952 233 952 c 2
 729 952 l 2
 739 952 748 950 748 942 c 0
 748 928 719 874 686 788 c 0
 682 780 678 778 670 778 c 2
 276 778 l 1
 209 594 l 1
 211 590 l 1
 248 598 287 602 326 602 c 2
 328 602 l 2
EndSplineSet
EndChar

StartChar: six
Encoding: 54 54 58
Width: 1046
Flags: HW
HStem: -61 90<419.444 660.443> 719 117<458.701 669.877> 1401 20G<822 923.049>
VStem: 61 209<229.494 702.235> 786 199<214.58 592.241>
LayerCount: 4
Fore
SplineSet
518 -61 m 0
 283 -61 61 123 61 449 c 0
 61 732 215 970 381 1118 c 0
 531 1251 729 1351 915 1421 c 1
 948 1339 l 1
 721 1247 270 1002 270 494 c 0
 270 228 379 29 541 29 c 0
 639 29 786 118 786 401 c 0
 786 661 626 719 530 719 c 0
 469 719 407 696 360 655 c 1
 326 696 l 1
 400 770 514 836 639 836 c 0
 809 836 985 706 985 434 c 2
 985 432 l 2
 985 123 754 -61 518 -61 c 0
EndSplineSet
Layer: 3
SplineSet
985 432 m 2
 985 123 754 -61 518 -61 c 0
 395 -61 272 -8 190 82 c 0
 102 180 61 316 61 449 c 0
 61 732 215 970 381 1118 c 0
 531 1251 729 1351 915 1421 c 1
 948 1339 l 1
 721 1247 270 1002 270 494 c 0
 270 228 379 29 541 29 c 0
 639 29 786 118 786 401 c 0
 786 661 626 719 530 719 c 0
 469 719 407 696 360 655 c 1
 326 696 l 1
 400 770 514 836 639 836 c 0
 809 836 985 706 985 434 c 2
 985 432 l 2
EndSplineSet
EndChar

StartChar: seven
Encoding: 55 55 59
Width: 958
Flags: HW
HStem: 758 194<111.095 750>
LayerCount: 4
Fore
SplineSet
37 766 m 0
 37 768 107 944 111 948 c 0
 113 950 117 952 121 952 c 2
 930 952 l 2
 936 952 942 950 942 942 c 0
 942 911 651 451 403 -389 c 0
 399 -403 391 -408 375 -408 c 2
 209 -408 l 2
 199 -408 190 -405 190 -395 c 0
 190 -393 390 140 752 754 c 1
 750 758 l 1
 47 758 l 2
 39 758 37 762 37 766 c 0
EndSplineSet
Layer: 3
SplineSet
37 766 m 0
 37 768 107 944 111 948 c 0
 113 950 117 952 121 952 c 2
 930 952 l 2
 936 952 942 950 942 942 c 0
 942 911 651 451 403 -389 c 0
 398.877197909 -402.964329662 391 -408 375 -408 c 2
 209 -408 l 2
 199 -408 190 -405 190 -395 c 0
 190 -393 390 140 752 754 c 1
 750 758 l 1
 47 758 l 2
 39 758 37 762 37 766 c 0
EndSplineSet
EndChar

StartChar: eight
Encoding: 56 56 60
Width: 1056
Flags: HW
HStem: -45 88<367.457 671.536> 633 149<479.685 589.474> 1288 86<392.26 658.561>
VStem: 61 168<178.016 468.928> 98 189<942.084 1164.61> 782 152<903.954 1172.21> 813 182<194.364 464.718>
LayerCount: 4
Fore
SplineSet
98 1006 m 0xe8
 98 1182 258 1374 539 1374 c 0
 762 1374 934 1247 934 1057 c 0xec
 934 932 846 811 711 741 c 1
 711 737 l 1
 928 671 995 512 995 379 c 0
 995 162 830 -45 508 -45 c 0
 248 -45 61 110 61 313 c 0xf2
 61 497 217 619 344 672 c 1
 344 678 l 1
 180 739 98 881 98 1006 c 0xe8
229 322 m 0xf2
 229 166 364 43 518 43 c 0
 680 43 813 176 813 330 c 0
 813 473 701 543 584 592 c 0
 537 612 473 633 461 633 c 0
 436 633 229 510 229 322 c 0xf2
782 1042 m 0xec
 782 1173 657 1288 524 1288 c 0
 391 1288 287 1180 287 1065 c 0
 287 866 582 782 602 782 c 0
 627 782 782 890 782 1042 c 0xec
EndSplineSet
Layer: 3
SplineSet
98 1006 m 0xe8
 98 1182 258 1374 539 1374 c 0
 762 1374 934 1247 934 1057 c 0xec
 934 932 846 811 711 741 c 1
 711 737 l 1
 928 671 995 512 995 379 c 0
 995 162 830 -45 508 -45 c 0
 248 -45 61 110 61 313 c 0xf2
 61 497 217 619 344 672 c 1
 344 678 l 1
 180 739 98 881 98 1006 c 0xe8
229 322 m 0xf2
 229 166 364 43 518 43 c 0
 680 43 813 176 813 330 c 0
 813 473 700.859134815 542.666325611 584 592 c 0
 536.943276543 611.865636319 473 633 461 633 c 0
 436 633 229 510 229 322 c 0xf2
782 1042 m 0xec
 782 1173 657 1288 524 1288 c 0
 391 1288 287 1180 287 1065 c 0
 287 866 582 782 602 782 c 0
 627 782 782 890 782 1042 c 0xec
EndSplineSet
EndChar

StartChar: nine
Encoding: 57 57 61
Width: 1079
Flags: HW
HStem: 104 113<370.441 615.329> 907 82<392.398 635.375>
VStem: 61 201<336.17 719.362> 807 211<287.662 714.645>
LayerCount: 4
Fore
SplineSet
1018 508 m 0
 1018 76 555 -280 80 -438 c 1
 47 -346 l 1
 336 -254 558 -90 664 45 c 1
 770 182 807 340 807 483 c 0
 807 794 631 907 512 907 c 2
 510 907 l 2
 412 907 262 838 262 535 c 0
 262 265 416 217 516 217 c 0
 594 217 639 246 684 291 c 1
 719 260 l 1
 647 119 503 104 442 104 c 0
 213 104 61 277 61 506 c 0
 61 803 276 989 530 989 c 0
 784 989 1018 809 1018 508 c 0
EndSplineSet
Layer: 3
SplineSet
1018 508 m 0
 1018 76 555 -280 80 -438 c 1
 47 -346 l 1
 336 -254 558 -90 664 45 c 1
 770 182 807 340 807 483 c 0
 807 794 631 907 512 907 c 2
 510 907 l 2
 412 907 262 838 262 535 c 0
 262 265 416 217 516 217 c 0
 594 217 639 246 684 291 c 1
 719 260 l 1
 647 119 503 104 442 104 c 0
 213 104 61 277 61 506 c 0
 61 803 276 989 530 989 c 0
 784 989 1018 809 1018 508 c 0
EndSplineSet
EndChar

StartChar: colon
Encoding: 58 58 62
Width: 614
Flags: HW
HStem: -53 280<207.387 408.909> 608 281<205.935 408.909>
VStem: 168 281<-15.065 188.838 647.863 849.386>
LayerCount: 4
Fore
SplineSet
168 748 m 0
 168 824 229 889 307 889 c 0
 383 889 449 828 449 748 c 0
 449 670 383 608 307 608 c 0
 229 608 168 674 168 748 c 0
307 -53 m 0
 233 -53 168 8 168 86 c 0
 168 166 233 227 307 227 c 0
 383 227 449 166 449 86 c 0
 449 8 383 -53 307 -53 c 0
EndSplineSet
Layer: 3
SplineSet
168 748 m 0
 168 824 229 889 307 889 c 0
 383 889 449 828 449 748 c 0
 449 670 383 608 307 608 c 0
 229 608 168 674 168 748 c 0
307 -53 m 0
 233 -53 168 8 168 86 c 0
 168 166 233 227 307 227 c 0
 383 227 449 166 449 86 c 0
 449 8 383 -53 307 -53 c 0
EndSplineSet
EndChar

StartChar: semicolon
Encoding: 59 59 63
Width: 614
Flags: HW
HStem: -20 260<208.794 339.531> 608 281<205.935 408.909>
VStem: 168 313<8.53729 181.006> 168 281<647.863 849.386> 344 137<-102.281 -18.1839>
LayerCount: 4
Fore
SplineSet
309 -20 m 0xc8
 225 -20 168 26 168 100 c 0
 168 178 235 240 313 240 c 0
 403 240 481 162 481 53 c 2
 481 51 l 2xe0
 481 -10 456 -91 403 -150 c 0
 346 -213 252 -252 211 -266 c 1
 172 -182 l 1
 272 -139 344 -107 344 -31 c 0
 344 -21 344 -22 340 -18 c 1
 330 -20 319 -20 309 -20 c 0xc8
168 748 m 0xd0
 168 824 229 889 307 889 c 0
 383 889 449 828 449 748 c 0
 449 670 383 608 307 608 c 0
 229 608 168 674 168 748 c 0xd0
EndSplineSet
Layer: 3
SplineSet
309 -20 m 0xc8
 225 -20 168 26 168 100 c 0
 168 178 235 240 313 240 c 0
 403 240 481 162 481 53 c 2
 481 51 l 2xe0
 481 -10 456 -91 403 -150 c 0
 346 -213 252 -252 211 -266 c 1
 172 -182 l 1
 272 -139 344 -107 344 -31 c 0
 344 -21 344 -22 340 -18 c 1
 330 -20 319 -20 309 -20 c 0xc8
168 748 m 0xd0
 168 824 229 889 307 889 c 0
 383 889 449 828 449 748 c 0
 449 670 383 608 307 608 c 0
 229 608 168 674 168 748 c 0xd0
EndSplineSet
EndChar

StartChar: question
Encoding: 63 63 64
Width: 921
Flags: HW
HStem: -53 280<375.387 574.613> 1251 129<364.524 589.804>
VStem: 104 205<929.839 1126.64> 336 278<-15.065 188.838> 414 98<258.024 513.744> 668 198<910.405 1178.56>
LayerCount: 4
Fore
SplineSet
475 227 m 0xf4
 549 227 614 166 614 86 c 0
 614 8 549 -53 475 -53 c 0
 401 -53 336 8 336 86 c 0
 336 166 401 227 475 227 c 0xf4
461 258 m 2
 430 258 414 261 414 420 c 0xec
 414 725 668 862 668 1057 c 0
 668 1174 571 1251 467 1251 c 2
 465 1251 l 2
 369 1251 309 1180 309 1112 c 0
 309 1077 324 1045 324 1008 c 0
 324 928 262 858 201 858 c 0
 144 858 104 909 104 977 c 0
 104 1139 293 1380 555 1380 c 0
 745 1380 866 1250 866 1090 c 0
 866 916 731 761 647 655 c 0
 569 557 512 467 512 301 c 2
 512 293 l 2
 512 260 493 258 473 258 c 2
 461 258 l 2
EndSplineSet
Layer: 3
SplineSet
475 227 m 0xf4
 549 227 614 166 614 86 c 0
 614 8 549 -53 475 -53 c 0
 401 -53 336 8 336 86 c 0
 336 166 401 227 475 227 c 0xf4
201 858 m 0
 144 858 104 909 104 977 c 0
 104 1139 293 1380 555 1380 c 0
 745 1380 866 1250 866 1090 c 0
 866 916 731 761 647 655 c 0
 569.208440126 556.834460159 512 467 512 301 c 2
 512 293 l 2
 512 260 493 258 473 258 c 2
 461 258 l 2
 434 258 426.119466312 266.016980199 422 295 c 0
 416.169098671 336.024034634 414 375 414 420 c 0xec
 414 725 668 862 668 1057 c 0
 668 1174 571 1251 467 1251 c 2
 465 1251 l 2
 369 1251 309 1180 309 1112 c 0
 309 1077 324 1045 324 1008 c 0
 324 928 262 858 201 858 c 0
EndSplineSet
EndChar

StartChar: exclam
Encoding: 33 33 65
Width: 614
Flags: HW
HStem: -45 278<229.863 429.613>
VStem: 190 279<-5.61331 193.613 999.888 1419.33>
LayerCount: 4
Fore
SplineSet
330 -45 m 0
 256 -45 190 16 190 94 c 0
 190 168 252 233 330 233 c 0
 404 233 469 172 469 94 c 0
 469 20 408 -45 330 -45 c 0
332 1464 m 2
 387 1464 461 1422 461 1311 c 0
 461 1213 418 1020 371 334 c 1
 289 334 l 1
 254 946 199 1237 199 1311 c 0
 199 1442 295 1464 330 1464 c 2
 332 1464 l 2
EndSplineSet
Layer: 3
SplineSet
330 -45 m 0
 256 -45 190 16 190 94 c 0
 190 168 252 233 330 233 c 0
 404 233 469 172 469 94 c 0
 469 20 408 -45 330 -45 c 0
332 1464 m 2
 387 1464 461 1422 461 1311 c 0
 461 1213 418 1020 371 334 c 1
 289 334 l 1
 254 946 199 1237 199 1311 c 0
 199 1442 295 1464 330 1464 c 2
 332 1464 l 2
EndSplineSet
EndChar

StartChar: comma
Encoding: 44 44 67
Width: 614
Flags: HW
HStem: -20 260<208.794 339.531>
VStem: 168 313<8.53729 181.006> 344 137<-102.281 -18.1839>
LayerCount: 4
Fore
SplineSet
309 -20 m 0xa0
 225 -20 168 26 168 100 c 0
 168 178 235 240 313 240 c 0
 403 240 481 162 481 53 c 2
 481 51 l 2xc0
 481 -10 456 -91 403 -150 c 0
 346 -213 252 -252 211 -266 c 1
 172 -182 l 1
 272 -139 344 -107 344 -31 c 0
 344 -21 344 -22 340 -18 c 1
 330 -20 319 -20 309 -20 c 0xa0
EndSplineSet
Layer: 3
SplineSet
309 -20 m 0xa0
 225 -20 168 26 168 100 c 0
 168 178 235 240 313 240 c 0
 403 240 481 162 481 53 c 2
 481 51 l 2xc0
 481 -10 456 -91 403 -150 c 0
 346 -213 252 -252 211 -266 c 1
 172 -182 l 1
 272 -139 344 -107 344 -31 c 0
 344 -21 344 -22 340 -18 c 1
 330 -20 319 -20 309 -20 c 0xa0
EndSplineSet
EndChar

StartChar: hyphen
Encoding: 45 45 68
Width: 647
Flags: HW
HStem: 442 172<68 580>
VStem: 68 512<442 614>
LayerCount: 4
Fore
SplineSet
68 614 m 1
 580 614 l 1
 580 442 l 1
 68 442 l 1
 68 614 l 1
EndSplineSet
Layer: 3
SplineSet
68 614 m 1
 580 614 l 1
 580 442 l 1
 68 442 l 1
 68 614 l 1
EndSplineSet
EndChar

StartChar: period
Encoding: 46 46 69
Width: 614
Flags: HW
HStem: -53 280<207.387 408.909>
VStem: 168 281<-15.065 188.838>
LayerCount: 4
Fore
SplineSet
307 -53 m 0
 233 -53 168 8 168 86 c 0
 168 166 233 227 307 227 c 0
 383 227 449 166 449 86 c 0
 449 8 383 -53 307 -53 c 0
EndSplineSet
Layer: 3
SplineSet
307 -53 m 0
 233 -53 168 8 168 86 c 0
 168 166 233 227 307 227 c 0
 383 227 449 166 449 86 c 0
 449 8 383 -53 307 -53 c 0
EndSplineSet
EndChar

StartChar: parenleft
Encoding: 40 40 70
Width: 614
Flags: HW
VStem: 76 186<284.947 928.838>
LayerCount: 4
Fore
SplineSet
262 606 m 0
 262 317 324 -5 537 -281 c 1
 457 -342 l 1
 254 -106 76 233 76 606 c 0
 76 985 258 1323 457 1554 c 1
 537 1493 l 1
 324 1217 262 895 262 606 c 0
EndSplineSet
Layer: 3
SplineSet
262 606 m 0
 262 317 324 -5 537 -281 c 1
 457 -342 l 1
 254 -106 76 233 76 606 c 0
 76 985 258 1323 457 1554 c 1
 537 1493 l 1
 324 1217 262 895 262 606 c 0
EndSplineSet
EndChar

StartChar: parenright
Encoding: 41 41 71
Width: 614
Flags: HW
VStem: 352 187<283.162 927.053>
LayerCount: 4
Fore
SplineSet
539 606 m 0
 539 227 357 -111 158 -342 c 1
 78 -281 l 1
 291 -5 352 317 352 606 c 0
 352 895 291 1217 78 1493 c 1
 158 1554 l 1
 361 1318 539 979 539 606 c 0
EndSplineSet
Layer: 3
SplineSet
539 606 m 0
 539 227 357 -111 158 -342 c 1
 78 -281 l 1
 291 -5 352 317 352 606 c 0
 352 895 291 1217 78 1493 c 1
 158 1554 l 1
 361 1318 539 979 539 606 c 0
EndSplineSet
EndChar

StartChar: asterisk
Encoding: 42 42 72
Width: 684
Flags: HW
HStem: 743 250<182 307> 995 164<488.197 648.467> 1032 166<36.9707 184.02>
VStem: 274 164<1148.7 1337.9>
LayerCount: 4
Fore
SplineSet
582 1159 m 0xd0
 623 1159 659 1122 659 1069 c 0
 659 1026 631 995 586 995 c 0
 576 995 563 997 561 997 c 2
 391 1014 l 2
 381 1014 369 1018 369 1030 c 0
 369 1042 383 1049 408 1065 c 0
 512 1128 551 1159 582 1159 c 0xd0
555 811 m 0
 555 762 506 727 465 727 c 0
 408 727 395 781 393 797 c 1
 354 969 l 2
 354 971 352 975 352 979 c 0
 352 987 359 995 369 995 c 0
 375 995 381 991 387 987 c 0
 541 854 555 852 555 811 c 0
182 743 m 0
 135 743 92 788 92 829 c 0
 92 870 127 891 141 897 c 1
 295 989 299 993 307 993 c 0
 317 993 324 985 324 977 c 0
 324 971 324 973 254 805 c 0
 242 774 225 743 182 743 c 0
25 1108 m 0
 25 1149 55 1198 102 1198 c 0
 141 1198 152 1182 293 1055 c 0
 295 1053 305 1046 305 1036 c 0
 305 1020 289 1020 281 1020 c 2
 109 1032 l 1xb0
 99 1034 25 1034 25 1108 c 0
354 1346 m 0
 401 1346 438 1317 438 1274 c 0
 438 1256 432 1239 428 1229 c 0
 354 1057 356 1051 340 1051 c 0
 324 1051 322 1069 322 1071 c 0
 283 1231 274 1252 274 1272 c 0
 274 1317 311 1346 354 1346 c 0
EndSplineSet
Layer: 3
SplineSet
582 1159 m 0xd0
 623 1159 659 1122 659 1069 c 0
 659 1026 631 995 586 995 c 0
 576 995 563 997 561 997 c 2
 391 1014 l 2
 381 1014 369 1018 369 1030 c 0
 369 1042 383 1049 408 1065 c 0
 512 1128 551 1159 582 1159 c 0xd0
555 811 m 0
 555 762 506 727 465 727 c 0
 408 727 395 781 393 797 c 1
 354 969 l 2
 354 971 352 975 352 979 c 0
 352 987 359 995 369 995 c 0
 375 995 381 991 387 987 c 0
 541 854 555 852 555 811 c 0
182 743 m 0
 135 743 92 788 92 829 c 0
 92 870 127 891 141 897 c 1
 295 989 299 993 307 993 c 0
 317 993 324 985 324 977 c 0
 324 971 324 973 254 805 c 0
 242 774 225 743 182 743 c 0
25 1108 m 0
 25 1149 55 1198 102 1198 c 0
 141 1198 152 1182 293 1055 c 0
 295 1053 305 1046 305 1036 c 0
 305 1020 289 1020 281 1020 c 2
 109 1032 l 1xb0
 99 1034 25 1034 25 1108 c 0
354 1346 m 0
 401 1346 438 1317 438 1274 c 0
 438 1256 432 1239 428 1229 c 0
 354 1057 356 1051 340 1051 c 0
 324 1051 322 1069 322 1071 c 0
 283 1231 274 1252 274 1272 c 0
 274 1317 311 1346 354 1346 c 0
EndSplineSet
EndChar

StartChar: .notdef
Encoding: 65536 -1 73
Width: 921
Flags: HW
HStem: -112 59<352.97 522.262> 227 31<394.383 468.475> 1380 60<368.245 660.589>
VStem: 30 346<258.042 631.722> 30 268<-15.065 188.838> 30 36<907.121 1065.91> 286 344<909.651 1178.85> 474 416<258 513.744> 576 314<-15.065 188.838> 828 62<940.84 1221.95>
LayerCount: 4
Fore
SplineSet
438 227 m 0xe880
 364 227 298 166 298 86 c 0
 298 8 364 -53 438 -53 c 0
 512 -53 576 8 576 86 c 0
 576 166 512 227 438 227 c 0xe880
424 258 m 2
 436 258 l 2
 456 258 474 260 474 293 c 2
 474 301 l 2xf1
 474 467 532 557 610 655 c 0
 694 761 828 916 828 1090 c 0
 828 1250 708 1380 518 1380 c 0
 256 1380 66 1139 66 977 c 0
 66 909 107 858 164 858 c 0
 225 858 286 928 286 1008 c 0
 286 1045 272 1077 272 1112 c 0
 272 1177 327 1251 430 1251 c 0
 534 1251 630 1174 630 1057 c 0xe640
 630 862 376 725 376 420 c 0xf0
 376 262 393 258 424 258 c 2
30 1440 m 1xe440
 890 1440 l 1
 890 -112 l 1
 30 -112 l 1
 30 1440 l 1xe440
EndSplineSet
Layer: 3
SplineSet
438 227 m 0xe880
 364 227 298 166 298 86 c 0
 298 8 364 -53 438 -53 c 0
 512 -53 576 8 576 86 c 0
 576 166 512 227 438 227 c 0xe880
424 258 m 2
 436 258 l 2
 456 258 474 260 474 293 c 2
 474 301 l 2xf1
 474 467 532.208440126 556.834460159 610 655 c 0
 694 761 828 916 828 1090 c 0
 828 1250 708 1380 518 1380 c 0
 256 1380 66 1139 66 977 c 0
 66 909 107 858 164 858 c 0
 225 858 286 928 286 1008 c 0
 286 1045 272 1077 272 1112 c 0
 272 1177 327 1251 430 1251 c 0
 534 1251 630 1174 630 1057 c 0xe640
 630 862 376 725 376 420 c 0xf0
 376 262 393 258 424 258 c 2
30 1440 m 1xe440
 890 1440 l 1
 890 -112 l 1
 30 -112 l 1
 30 1440 l 1xe440
EndSplineSet
EndChar
